<?xml version="1.0" encoding="iso-8859-1"?>
<!-- Generator: Adobe Illustrator 19.0.0, SVG Export Plug-In . SVG Version: 6.00 Build 0)  -->
<svg version="1.1" id="Capa_1" xmlns="http://www.w3.org/2000/svg" xmlns:xlink="http://www.w3.org/1999/xlink" x="0px" y="0px"
	 viewBox="0 0 512 512" style="enable-background:new 0 0 512 512;" xml:space="preserve">
<path style="fill:#FCF8F2;" d="M422.44,326.97h39.084c5.738,0,10.929,2.322,14.701,6.093c3.751,3.751,6.083,8.952,6.083,14.691
	c0,11.477-9.307,20.784-20.784,20.784h-17.824c5.738,0,10.929,2.322,14.701,6.093c3.751,3.751,6.083,8.952,6.083,14.691
	c0,11.477-9.307,20.784-20.784,20.784h-19.588h-0.002c5.738,0,10.929,2.322,14.701,6.093c3.751,3.751,6.083,8.952,6.083,14.691
	c0,11.477-9.307,20.784-20.784,20.784h-62.768H150.654H87.886c-11.477,0-20.784-9.307-20.784-20.784
	c0-5.738,2.332-10.94,6.083-14.691c3.772-3.772,8.963-6.093,14.701-6.093H68.298c-11.477,0-20.784-9.307-20.784-20.784
	c0-5.738,2.332-10.94,6.083-14.691c3.772-3.772,8.963-6.093,14.701-6.093H50.475c-11.477,0-20.784-9.307-20.784-20.784
	c0-5.738,2.332-10.94,6.083-14.691c3.772-3.772,8.963-6.093,14.701-6.093h44.154"/>
<path style="fill:#FFD15C;" d="M350.821,77.581c-44.955-21.463-76.04-4.562-76.04-4.562c-9.794-9.794-25.184-13.434-43.049-11.284
	c-53.38,6.418-128.801,64.593-142.478,164.874c-18.25,133.82,64.34,199.498,64.34,199.498l54.1-0.385l150.437-1.075
	C500.73,282.056,417.736,109.507,350.821,77.581z"/>
<path style="fill:#EDBB4C;" d="M182.216,215.354c27.131,44.904,29.23,136.243,25.478,210.366l-54.1,0.385
	c0,0-82.589-65.678-64.34-199.498c13.677-100.281,89.098-158.456,142.478-164.874C231.733,61.734,132.232,132.633,182.216,215.354z"
	/>
<path style="fill:#34ABE0;" d="M361.466,504.396V457.9c0-36.935-11.984-70.342-31.308-94.411l-148.308,0.01
	c-19.344,24.069-31.318,57.476-31.318,94.401v46.496"/>
<path style="fill:#279FC9;" d="M215.306,363.5l114.853-0.008c-0.001-0.001-0.001-0.001-0.002-0.002L181.85,363.5
	c-19.344,24.069-31.318,57.476-31.318,94.401v46.496h33.455V457.9C183.988,420.975,195.962,387.569,215.306,363.5z"/>
<g>
	<path style="fill:#FFDAC5;" d="M307.701,373.557v42.613c0,12.886-10.453,23.339-23.339,23.339h-56.726
		c-12.886,0-23.339-10.453-23.339-23.339v-42.613H307.701z"/>
	<path style="fill:#FFDAC5;" d="M378.884,228.555v48.746c0,67.858-55.022,104.255-122.88,104.255
		c-67.868,0-122.89-36.398-122.89-104.255v-38.081c13.89-11.761,31.318-19.061,49.101-23.866
		c27.253-7.381,55.357-8.881,72.795-11.558c39.541-6.083,47.145-42.582,47.145-42.582s1.399-5.86,1.612-15.147
		C303.768,146.067,325.515,207.74,378.884,228.555z"/>
</g>
<g>
	<path style="fill:#EFC1AB;" d="M307.701,373.557v22.771c-15.715,5.303-33.234,7.999-51.697,7.999
		c-18.473,0-35.992-2.697-51.707-7.999v-22.771H307.701z"/>
	<path style="fill:#EFC1AB;" d="M256.005,381.557c-67.868,0-122.89-36.398-122.89-104.255v-38.081
		c13.89-11.761,31.318-19.061,49.101-23.866C173.973,263.371,168.67,361.066,256.005,381.557z"/>
</g>
<g>
	<ellipse style="fill:#FCB997;" cx="334.827" cy="305.679" rx="16.729" ry="10.139"/>
	<ellipse style="fill:#FCB997;" cx="177.172" cy="305.679" rx="16.729" ry="10.139"/>
</g>
<path d="M198.995,254.136c-4.199,0-7.604,3.405-7.604,7.604v15.808c0,4.199,3.405,7.604,7.604,7.604
	c4.199,0,7.604-3.405,7.604-7.604V261.74C206.599,257.541,203.195,254.136,198.995,254.136z"/>
<path d="M316.514,285.153c4.199,0,7.604-3.405,7.604-7.604V261.74c0-4.199-3.405-7.604-7.604-7.604
	c-4.199,0-7.604,3.405-7.604,7.604v15.808C308.91,281.748,312.314,285.153,316.514,285.153z"/>
<path d="M275.02,317.487c-4.612,4.612-10.744,7.152-17.266,7.152s-12.654-2.54-17.266-7.152c-2.97-2.97-7.784-2.97-10.753,0
	c-2.97,2.97-2.97,7.784,0,10.753c7.484,7.484,17.435,11.607,28.02,11.607c10.585,0,20.535-4.121,28.019-11.607
	c2.97-2.97,2.97-7.784,0-10.753C282.805,314.516,277.99,314.517,275.02,317.487z"/>
<path d="M379.178,48.684h27.373c4.199,0,7.604-3.405,7.604-7.604s-3.405-7.604-7.604-7.604h-27.373
	c-4.199,0-7.604,3.405-7.604,7.604S374.978,48.684,379.178,48.684z"/>
<path d="M379.169,23.465c0.459,0,0.926-0.043,1.393-0.129l27.373-5.069c4.129-0.764,6.857-4.732,6.092-8.861
	c-0.764-4.129-4.733-6.856-8.861-6.092l-27.373,5.069c-4.129,0.764-6.857,4.732-6.092,8.861
	C372.379,20.905,375.574,23.465,379.169,23.465z"/>
<path d="M377.793,73.777l27.373,5.069c0.468,0.086,0.934,0.129,1.393,0.129c3.594,0,6.79-2.559,7.468-6.221
	c0.764-4.129-1.963-8.097-6.092-8.861l-27.373-5.069c-4.132-0.762-8.097,1.963-8.861,6.092
	C370.936,69.045,373.663,73.011,377.793,73.777z"/>
<path d="M105.449,48.684h27.373c4.199,0,7.604-3.405,7.604-7.604s-3.405-7.604-7.604-7.604h-27.373
	c-4.199,0-7.604,3.405-7.604,7.604S101.249,48.684,105.449,48.684z"/>
<path d="M104.064,18.266l27.373,5.069c0.468,0.086,0.934,0.129,1.393,0.129c3.594,0,6.79-2.559,7.468-6.221
	c0.764-4.129-1.963-8.097-6.092-8.861l-27.373-5.069c-4.129-0.764-8.097,1.963-8.861,6.092S99.935,17.501,104.064,18.266z"/>
<path d="M105.44,78.975c0.459,0,0.926-0.043,1.393-0.129l27.373-5.069c4.129-0.764,6.857-4.732,6.092-8.861
	c-0.765-4.129-4.734-6.856-8.861-6.092l-27.373,5.069c-4.129,0.764-6.857,4.732-6.092,8.861
	C98.65,76.416,101.846,78.975,105.44,78.975z"/>
<path d="M489.912,347.754c0-7.582-2.951-14.708-8.311-20.067c-5.365-5.365-12.496-8.321-20.078-8.321h-28.519
	c6.494-20.368,10.171-41.329,10.896-62.635c1.706-50.102-13.232-101.535-40.982-141.114c-2.412-3.439-7.153-4.27-10.592-1.86
	c-3.439,2.411-4.271,7.153-1.86,10.592c25.896,36.932,39.832,84.995,38.236,131.866c-0.945,27.765-7.192,55.01-18.567,80.978
	c-11.136,25.424-27.241,49.671-47.951,72.235c-4.716-15.983-11.786-30.835-20.99-43.895c2.208-1.498,4.349-3.061,6.412-4.691
	c25.436-20.111,38.882-48.998,38.882-83.539v-38.237c0.789,0.217,1.568,0.448,2.369,0.65c0.622,0.156,1.244,0.231,1.857,0.231
	c3.404,0,6.503-2.303,7.37-5.755c1.022-4.074-1.451-8.204-5.525-9.226c-52.704-13.225-77.381-70.653-81.119-80.116
	c0.219-17.141-3.44-43.805-23.436-68.498c11.532-2.853,32.728-4.707,59.541,8.09c7.049,3.365,14.293,8.45,21.529,15.115
	c1.461,1.345,3.307,2.01,5.149,2.01c2.051,0,4.097-0.825,5.596-2.453c2.845-3.089,2.646-7.9-0.443-10.745
	c-8.354-7.693-16.859-13.632-25.282-17.652c-5.438-2.595-10.69-4.663-15.733-6.297c8.283-6.402,12.682-13.9,12.682-21.977
	c0-27.566-48.966-42.44-95.039-42.44c-46.078,0-95.049,14.874-95.049,42.44c0,10.925,7.791,20.598,22.29,28.052
	c-46.38,25.626-91.173,79.188-101.522,155.087c-4.498,32.984-3.426,64.357,3.162,93.787h-34.41c-7.582,0-14.712,2.955-20.077,8.321
	c-5.359,5.359-8.311,12.486-8.311,20.067c0,13.284,9.17,24.465,21.514,27.547c-2.408,4.226-3.69,9.024-3.69,14.022
	c0,13.841,9.957,25.4,23.085,27.891c-2.283,4.141-3.497,8.816-3.497,13.677c0,15.653,12.735,28.388,28.388,28.388h55.043v45.117
	c0,4.199,3.405,7.604,7.604,7.604c4.199,0,7.604-3.405,7.604-7.604V457.9c0-31.692,9.139-61.484,25.842-84.64
	c4.074,2.058,8.317,3.93,12.716,5.603v37.306c0,17.062,13.881,30.944,30.944,30.944h56.725c17.062,0,30.944-13.881,30.944-30.944
	v-37.304c4.403-1.674,8.649-3.547,12.726-5.608c16.696,23.171,25.831,52.964,25.831,84.643v46.496c0,4.199,3.405,7.604,7.604,7.604
	c4.199,0,7.604-3.405,7.604-7.604v-45.117h55.04c15.653,0,28.388-12.735,28.388-28.388c0-4.861-1.214-9.535-3.497-13.677
	c13.128-2.49,23.087-14.049,23.087-27.891c0-4.997-1.282-9.796-3.69-14.022C480.742,372.22,489.912,361.038,489.912,347.754z
	 M371.281,233.631v43.67c0,29.724-11.448,54.486-33.106,71.609c-20.425,16.149-49.607,25.042-82.17,25.042
	c-32.568,0-61.753-8.894-82.18-25.042c-21.658-17.122-33.107-41.885-33.107-71.609V242.84
	c27.335-21.247,68.427-25.951,97.769-29.305c6.443-0.736,12.528-1.433,17.683-2.225c32.515-5.001,45.901-27.948,50.855-40.439
	C318.16,190.852,338.724,219.124,371.281,233.631z M176.163,42.44c0-5.718,7.978-12.449,20.821-17.566
	c15.643-6.233,36.604-9.666,59.021-9.666c22.412,0,43.37,3.433,59.012,9.666c12.843,5.117,20.82,11.848,20.82,17.566
	c0,5.599-7.562,12.096-19.846,17.17c-18.792-1.966-32.787,1.866-39.815,4.518c-15.757-12.312-40.196-14.072-68.102-4.671
	c-2.1,0.708-4.209,1.482-6.323,2.311C186.12,56.453,176.163,48.991,176.163,42.44z M149.224,411.471
	c-5.02-5.289-11.618-13-18.51-23.172c-2.355-3.477-7.085-4.385-10.56-2.03c-3.477,2.356-4.385,7.084-2.03,10.56
	c11.244,16.593,21.871,27.266,27.197,32.146c-0.831,4.963-1.456,9.999-1.853,15.096H87.886c-7.267,0-13.18-5.913-13.18-13.18
	c0-3.519,1.37-6.827,3.856-9.314c2.493-2.493,5.805-3.866,9.324-3.866c4.199,0,7.604-3.405,7.604-7.604
	c0-4.199-3.405-7.604-7.604-7.604H68.298c-7.267,0-13.18-5.913-13.18-13.18c0-3.52,1.37-6.827,3.856-9.314
	c2.493-2.493,5.805-3.866,9.324-3.866c4.199,0,7.604-3.405,7.604-7.604s-3.405-7.604-7.604-7.604H50.475
	c-7.267,0-13.18-5.913-13.18-13.18c0-3.519,1.37-6.827,3.856-9.314c2.493-2.493,5.805-3.866,9.324-3.866H88.84
	c3.574,12.069,8.11,23.789,13.623,35.128c1.315,2.706,4.024,4.28,6.844,4.28c1.116,0,2.249-0.247,3.319-0.767
	c3.777-1.837,5.349-6.387,3.513-10.164c-19.597-40.301-26.107-85.863-19.349-135.418c5.262-38.592,20.66-74.067,44.528-102.592
	c20.326-24.291,45.757-42.465,71.608-51.174c24.337-8.199,45.45-6.507,56.48,4.522c35.439,35.439,25.775,79.237,25.352,81.064
	c-0.016,0.07-0.032,0.14-0.047,0.21c-0.065,0.313-6.921,31.394-40.855,36.616c-4.862,0.748-10.806,1.428-17.098,2.146
	c-19.807,2.264-44.457,5.082-67.977,13.045c-28.743,9.732-48.459,24.647-60.274,45.597c-2.063,3.658-0.77,8.295,2.888,10.359
	c3.657,2.063,8.295,0.771,10.359-2.888c1.159-2.054,2.427-3.999,3.755-5.881V277.3c0,34.541,13.446,63.429,38.883,83.539
	c2.065,1.632,4.209,3.197,6.42,4.696C161.213,379.147,153.933,394.707,149.224,411.471z M300.097,416.169
	c0,8.677-7.059,15.736-15.736,15.736h-56.725c-8.677,0-15.736-7.059-15.736-15.736v-32.466c13.744,3.586,28.602,5.458,44.103,5.458
	c15.497,0,30.352-1.871,44.093-5.457v32.465H300.097z M461.524,360.935h-17.824c-4.199,0-7.604,3.405-7.604,7.604
	s3.405,7.604,7.604,7.604c3.519,0,6.83,1.373,9.324,3.867c2.486,2.486,3.856,5.793,3.856,9.313c0,7.267-5.913,13.18-13.18,13.18
	h-19.59c-4.199,0-7.604,3.405-7.604,7.604c0,4.199,3.405,7.604,7.604,7.604c3.519,0,6.83,1.373,9.324,3.866
	c2.487,2.487,3.856,5.794,3.856,9.314c0,7.267-5.913,13.18-13.18,13.18h-55.578c-0.448-5.735-1.174-11.396-2.17-16.959
	c27.633-28.317,48.211-59.536,61.217-92.538h33.944c3.519,0,6.83,1.373,9.324,3.866c2.487,2.487,3.856,5.794,3.856,9.314
	C474.705,355.022,468.793,360.935,461.524,360.935z"/>
<g>
</g>
<g>
</g>
<g>
</g>
<g>
</g>
<g>
</g>
<g>
</g>
<g>
</g>
<g>
</g>
<g>
</g>
<g>
</g>
<g>
</g>
<g>
</g>
<g>
</g>
<g>
</g>
<g>
</g>
</svg>
