<svg id="Capa_1" enable-background="new 0 0 512 512" height="512" viewBox="0 0 512 512" width="512" xmlns="http://www.w3.org/2000/svg"><path d="m374.646 439.808c-15.706-24.945-35.539-37.616-35.539-37.616h-166.215s-19.833 12.671-35.539 37.616c-10.287 16.338-18.794 37.941-18.794 64.692h52.928l7.5-4.565 7.5 4.565h139.026l7.5-4.565 7.5 4.565h52.928c0-26.751-8.508-48.355-18.795-64.692z" fill="#f9475e"/><path d="m202.892 402.192h-30s-19.833 12.671-35.539 37.616c-10.287 16.338-18.794 37.941-18.794 64.692h30c0-26.751 8.508-48.354 18.794-64.692 15.706-24.945 35.539-37.616 35.539-37.616z" fill="#e92740"/><path d="m397.186 10.017c-5.718-5.239-15.034-1.825-15.997 5.87-1.49 11.896-5.775 27.281-17.67 34.202l53.086 43.648c.001-.001 11.559-55.332-19.419-83.72z" fill="#f9d171"/><path d="m401.189 23.662c.26-2.673 1.134-4.939 2.378-6.697-1.895-2.449-4.012-4.778-6.381-6.948-5.718-5.239-15.034-1.825-15.997 5.87-1.49 11.896-5.775 27.281-17.67 34.202l20.679 17.002c11.376-9.133 15.53-28.433 16.991-43.429z" fill="#ffa93f"/><path d="m114.814 10.017c5.718-5.239 15.034-1.825 15.997 5.87 1.49 11.896 5.775 27.281 17.67 34.202l-53.087 43.647s-11.558-55.331 19.42-83.719z" fill="#f9d171"/><path d="m130.514 14.435c-1.874-6.65-10.357-9.314-15.7-4.417-30.978 28.387-19.42 83.718-19.42 83.718l18.179-14.947c-1.098-17.081.203-45.145 16.941-64.354z" fill="#ffa93f"/><path d="m40.575 235.976c0-28.763 5.825-56.85 17.314-83.479 11.006-25.509 26.678-48.509 46.581-68.361 19.871-19.821 42.878-35.427 68.382-46.384 26.563-11.413 54.538-17.2 83.148-17.2s56.584 5.787 83.147 17.2c25.504 10.958 48.512 26.563 68.382 46.384 19.903 19.852 35.575 42.853 46.581 68.361 11.489 26.629 17.314 54.715 17.314 83.479z" fill="#5c576e"/><path d="m144.471 84.136c19.871-19.821 42.878-35.427 68.382-46.384 20.337-8.738 41.503-14.166 63.147-16.236-6.626-.634-13.295-.964-20-.964-28.61 0-56.584 5.787-83.148 17.2-25.504 10.958-48.511 26.563-68.382 46.384-19.903 19.853-35.575 42.853-46.581 68.361-11.489 26.629-17.314 54.715-17.314 83.479h40c0-28.763 5.826-56.85 17.314-83.479 11.007-25.508 26.679-48.508 46.582-68.361z" fill="#423e4f"/><path d="m499.888 187.202c-.673-2.911-3.762-4.549-6.553-3.482-38.781 14.82-51.993 39.544-51.993 39.544l-12.61 80.213c92.2.001 76.586-92.786 71.156-116.275z" fill="#f9475e"/><path d="m441.795 235.847c-.006-7.75-.857-15.485-2.463-23.067-26.918-127.061-126.658-142.078-183.332-84.516-56.674-57.562-156.414-42.545-183.332 84.516-1.606 7.582-2.457 15.317-2.463 23.067v.129c0 101.21 84.723 185.795 185.796 185.795 101.072 0 185.795-84.586 185.795-185.795 0-.043 0-.086-.001-.129z" fill="#fd5c6f"/><path d="m100.204 235.976c0-.043 0-.086 0-.129.006-7.75.857-15.485 2.463-23.067 15.352-72.465 54.39-108.47 95.617-115.369-50.953-8.4-106.551 25.373-125.617 115.369-.81 3.822-1.426 7.682-1.841 11.564l-.17-1.08s-13.211-24.725-51.993-39.544c-2.791-1.066-5.88.571-6.553 3.482-5.43 23.489-21.044 116.276 71.156 116.276v-.001c27.519 68.688 95.332 118.294 172.734 118.295 5.044 0 10.046-.22 15-.633-94.316-7.861-170.796-89.004-170.796-185.163z" fill="#f9475e"/><ellipse cx="148.266" cy="281.263" fill="#ffa1ac" rx="39.752" ry="31.656"/><ellipse cx="363.734" cy="281.263" fill="#ffa1ac" rx="39.752" ry="31.656"/><path d="m283.238 244.653c-3.123-2.721-7.86-2.396-10.582.727-8.796 10.094-24.461 10.123-33.283 0-2.721-3.124-7.459-3.448-10.581-.727-3.123 2.721-3.448 7.459-.727 10.581 14.763 16.942 41.093 16.989 55.9 0 2.721-3.122 2.396-7.86-.727-10.581z"/><path d="m189.399 221.524-32.588-8.732c-3.996-1.072-8.113 1.302-9.186 5.304-1.072 4.001 1.303 8.113 5.304 9.186l12.867 3.447c-1.147 1.317-1.847 3.035-1.847 4.919v14.038c0 4.142 3.358 7.5 7.5 7.5s7.5-3.358 7.5-7.5c-.049-14.664.11-14.173-.14-15.469 6.25 1.603 6.992 2.055 8.655 2.055 3.311 0 6.342-2.21 7.24-5.561 1.07-4.003-1.304-8.115-5.305-9.187z"/><path d="m355.219 212.792-32.588 8.732c-4.001 1.072-6.375 5.185-5.304 9.186.898 3.351 3.928 5.561 7.24 5.561 1.65 0 2.168-.391 8.655-2.055-.25 1.297-.091.821-.14 15.469 0 4.142 3.358 7.5 7.5 7.5s7.5-3.358 7.5-7.5v-14.038c0-1.884-.7-3.601-1.847-4.919l12.867-3.447c4.001-1.072 6.375-5.185 5.304-9.186-1.074-4.001-5.188-6.372-9.187-5.303z"/><path d="m490.672 176.717c-6.621 2.53-12.537 5.34-17.824 8.274-8.29-34.277-24.767-66.307-48.222-93.483 2.125-13.619 6.849-60.252-22.359-87.017-10.198-9.345-26.787-3.261-28.506 10.467-1.102 8.799-3.873 19.932-10.72 26.218-66.872-37.326-146.509-37.702-214.054 0-6.846-6.286-9.618-17.418-10.72-26.217-1.719-13.727-18.307-19.813-28.506-10.467-29.206 26.764-24.482 73.397-22.357 87.016-23.411 27.126-39.915 59.142-48.222 93.483-5.287-2.935-11.203-5.745-17.824-8.275-7.037-2.69-14.84 1.456-16.537 8.799-7.435 32.159-7.951 72.686 12.689 98.642 13.32 16.75 33.71 25.723 60.648 26.722 16.68 38.746 46.049 71.19 81.445 92.035-7.68 6.491-18.859 17.458-28.58 32.898-13.236 21.023-19.948 44.133-19.948 68.688 0 4.142 3.358 7.5 7.5 7.5h274.88c4.142 0 7.5-3.358 7.5-7.5 0-18.235-3.767-35.852-11.195-52.363-1.7-3.778-6.14-5.462-9.917-3.763-3.777 1.7-5.462 6.14-3.763 9.917 5.529 12.289 8.758 25.279 9.632 38.709h-45.185v-34.164c0-4.142-3.358-7.5-7.5-7.5s-7.5 3.358-7.5 7.5v34.164h-139.025v-34.164c0-4.142-3.358-7.5-7.5-7.5s-7.5 3.358-7.5 7.5v34.164h-45.188c1.216-18.9 7.055-36.763 17.401-53.196 11.084-17.604 24.479-28.811 30.295-33.192 51.627 24.773 111.958 24.98 164.018-.004 4.681 3.513 14.252 11.434 23.654 23.687 2.521 3.287 7.23 3.907 10.516 1.385 3.287-2.521 3.906-7.229 1.385-10.516-7.631-9.945-15.387-17.36-21.163-22.245 35.345-20.813 64.747-53.235 81.452-92.039 51.103-1.895 76.918-32.831 77.972-82.376.389-18.278-2.737-34.779-4.635-42.989-1.696-7.341-9.495-11.489-16.537-8.798zm-102.026-159.896c.207-1.656 2.243-2.413 3.488-1.272 18.038 16.529 19.805 44.282 18.875 61.472-10.418-10.167-22.249-19.721-34.827-27.915 6.489-7.579 10.74-18.521 12.464-32.285zm-268.75-1.271c1.265-1.159 3.283-.373 3.488 1.272 1.724 13.763 5.975 24.705 12.463 32.284-12.639 8.234-24.392 17.739-34.851 27.939-.952-17.168.794-44.903 18.9-61.495zm-90.646 259.271c-19.976-25.121-13.86-66.804-10.462-82.992 21.339 8.725 36.705 21.979 44.412 33.596-1.674 18.272.84 45.097 9.096 70.043-19.157-1.857-33.608-8.779-43.046-20.647zm405.06-38.843c0 95.271-78.529 175.658-173.529 178.226-97.425 2.625-179.636-76.553-182.943-172.156-1.025-29.396 11.11-65.789 25.653-89.182 3.178-5.111-.685-11.685-6.647-11.455-2.408.09-4.727 1.34-6.092 3.535-11.449 18.419-19.227 39.582-24.2 60.869-3.601-3.768-8.201-7.979-13.961-12.23 2.792-12.999 6.888-25.798 12.201-38.113 14.7-34.071 33.903-53.655 36.289-56.801 116.764-130.912 323.409-67.806 358.358 94.914-5.76 4.251-10.36 8.463-13.961 12.23-28.461-122.387-127.567-143.929-189.464-87.934-20.258-18.311-45.702-29.218-72.781-29.218-2.31.482-38.85-2.812-73.185 31.695-2.922 2.936-2.91 7.685.026 10.607 2.936 2.921 7.685 2.91 10.606-.026 38.424-38.612 93.212-34.765 129.991 2.59 2.938 2.985 7.753 2.982 10.688 0 40.132-40.761 100.014-41.117 138.243 6.66 21.25 26.557 34.685 69.463 34.707 95.666m48.471 38.966c-9.437 11.868-23.887 18.789-43.046 20.646 8.073-24.392 10.854-50.644 9.095-70.042 7.782-11.832 23.171-24.923 44.413-33.596 3.398 16.184 9.516 57.87-10.462 82.992z"/></svg>