<svg xmlns="http://www.w3.org/2000/svg" xmlns:xlink="http://www.w3.org/1999/xlink" viewBox="0 0 750 500"><defs><clipPath id="freepik--clip-path--inject-7"><path d="M188.93,419.27h0a15.35,15.35,0,0,0-13.32,7.16A15.13,15.13,0,0,0,180,447.37a14.68,14.68,0,0,0,7.57,2.27h0l74.8.9,2.74-29.66Z" style="fill:none"></path></clipPath></defs><g id="freepik--background-complete--inject-7"><polygon points="697.42 35.92 697.42 143.02 543.6 143.02 538.05 36.67 697.42 35.92" style="fill:#e0e0e0"></polygon><rect x="561.9" y="12.82" width="106.13" height="153.83" transform="translate(525.24 704.7) rotate(-90)" style="fill:#fff"></rect><path d="M692.61,143.53H537.32V35.94H692.61Zm-153.83-1.46H691.15V37.4H538.78Z" style="fill:#e0e0e0"></path><rect x="554.53" y="50.04" width="120.51" height="79.76" style="fill:#fff"></rect><path d="M675.22,49.85s-.21,0-.59,0l-1.72,0-6.61,0L641.46,50l-86.75.17.35-.35c0,24.37,0,51.37,0,79.75h0l-.38-.38,120.51.08-.3.3c.07-24.27.12-44.17.16-58,0-6.93.06-12.34.08-16,0-1.83,0-3.24,0-4.21s0-1.47,0-1.47,0,.47,0,1.4,0,2.36,0,4.16c0,3.7,0,9.09.08,16,0,13.91.09,33.87.15,58.22v.3h-.31L554.71,130h-.38v-.38h0c0-28.38,0-55.38,0-79.75V49.5h.34l87,.17,24.76.09,6.54,0,1.68,0Z" style="fill:#e0e0e0"></path><path d="M538.05,36.37a13.29,13.29,0,0,1,2.65,1.71c1.57,1.14,3.71,2.75,6,4.6s4.35,3.61,5.78,4.92a12.7,12.7,0,0,1,2.2,2.25c-.14.17-3.84-2.89-8.46-6.57S537.92,36.54,538.05,36.37Z" style="fill:#e0e0e0"></path><path d="M691.88,36.67c.13.16-3.49,3.25-8.09,6.89s-8.44,6.46-8.57,6.29,3.5-3.25,8.1-6.89S691.75,36.5,691.88,36.67Z" style="fill:#e0e0e0"></path><path d="M691.76,142.81l-17.15-13.9" style="fill:#fff"></path><path d="M674.61,128.91c.13-.16,4.08,2.82,8.81,6.66s8.47,7.08,8.34,7.24-4.08-2.81-8.81-6.65S674.48,129.07,674.61,128.91Z" style="fill:#e0e0e0"></path><path d="M538.05,142.8c-.13-.17,3.46-3.22,8-6.82s8.35-6.39,8.48-6.23-3.45,3.22-8,6.82S538.18,143,538.05,142.8Z" style="fill:#e0e0e0"></path><path d="M615.62,89.05s-2.18,10.25-7.48,11.73c0,0,6.52,3.35.05,9.55,0,0,5.11,1.21.49,7.08,0,0,2.83,1.89.93,7.86,0,0,2.65-6.32,5.74-5.84,0,0-1.67-6.87,2.6-7.22,0,0-2.56-8.57,4-9.09C622,103.12,615.38,96,615.62,89.05Z" style="fill:#ebebeb"></path><path d="M611.05,121.57s0-.1,0-.29.08-.48.14-.84c.13-.72.31-1.76.53-3s.47-2.83.74-4.54c.13-.85.27-1.75.41-2.68s.27-1.9.41-2.89.27-2,.39-2.89.23-1.83.34-2.69c.2-1.72.38-3.27.52-4.57s.24-2.35.32-3.08l.09-.84a1.76,1.76,0,0,1,0-.29s0,.1,0,.29,0,.48-.06.84-.06.81-.11,1.33-.09,1.11-.16,1.76c-.12,1.31-.28,2.86-.48,4.58-.1.86-.21,1.76-.33,2.69s-.25,1.91-.38,2.9-.28,2-.42,2.88-.28,1.83-.42,2.69c-.28,1.71-.54,3.24-.78,4.53-.11.64-.23,1.23-.32,1.74l-.26,1.31c-.08.35-.13.63-.17.82A1.94,1.94,0,0,1,611.05,121.57Z" style="fill:#e0e0e0"></path><path d="M616,105.44a3.93,3.93,0,0,1-.41-.73,19.72,19.72,0,0,1-.77-1.88c-.27-.75-.47-1.44-.6-1.94a4.56,4.56,0,0,1-.16-.83,3.45,3.45,0,0,1,.28.79c.16.5.37,1.18.64,1.92s.53,1.41.73,1.89A5.5,5.5,0,0,1,616,105.44Z" style="fill:#e0e0e0"></path><path d="M614,102.25a1.59,1.59,0,0,1-.05.33c0,.1,0,.22-.07.37s-.08.31-.13.49c-.09.36-.22.79-.38,1.25-.08.24-.17.48-.27.73l-.32.77c-.12.26-.23.52-.35.76l-.36.69c-.24.43-.47.81-.67,1.13l-.29.42a2.94,2.94,0,0,1-.22.3c-.12.17-.2.26-.21.25a1.56,1.56,0,0,1,.15-.28c.06-.1.13-.2.2-.33s.17-.27.26-.43c.19-.32.41-.71.63-1.14.12-.22.24-.45.35-.69s.23-.49.35-.75.22-.51.32-.76l.28-.72c.16-.46.31-.88.41-1.24.06-.17.11-.34.15-.48l.11-.36A1.43,1.43,0,0,1,614,102.25Z" style="fill:#e0e0e0"></path><path d="M613.52,118.82a3.66,3.66,0,0,1-.21-.79c-.1-.49-.24-1.18-.37-1.93s-.25-1.44-.33-1.94a4.17,4.17,0,0,1-.08-.81,4.55,4.55,0,0,1,.21.79c.1.49.23,1.18.37,1.93s.25,1.44.32,1.93A3.94,3.94,0,0,1,613.52,118.82Z" style="fill:#e0e0e0"></path><path d="M617,87.13l15.75,7.67s2.13-7.23,10.21-3.38c0,0,.09-7.81,6.43-4.69a16.86,16.86,0,0,1,5.39-5.3s-6.22.34-7.54-2.36c0,0-5.81,5.5-8.62.06,0,0-7.45,5.84-13.62.88C625,80,621.91,87.08,617,87.13Z" style="fill:#e0e0e0"></path><path d="M654.21,81.43l-.1,0-.27.08-1.06.29c-.47.13-1,.29-1.69.45s-1.41.37-2.25.56l-1.3.31-1.43.32c-1,.23-2,.44-3.14.67-2.23.44-4.68.88-7.26,1.28s-5.06.7-7.31.94c-1.13.12-2.2.23-3.21.31l-1.45.12-1.34.09c-.86.07-1.63.1-2.31.14l-1.74.08-1.11,0H617l.28,0,1.1-.07,1.75-.11c.67-.05,1.45-.09,2.3-.16l1.34-.11c.47,0,.95-.08,1.45-.13,1-.08,2.07-.2,3.2-.32,2.25-.25,4.72-.56,7.3-.95s5-.84,7.26-1.27c1.1-.23,2.16-.43,3.14-.65l1.43-.31,1.31-.3,2.24-.53,1.7-.42,1.07-.27.28-.06Z" style="fill:#ebebeb"></path><path d="M631.19,82.94s-1.65.94-3.74,2-3.79,1.89-3.82,1.85,1.66-.94,3.74-2S631.17,82.9,631.19,82.94Z" style="fill:#ebebeb"></path><path d="M634.65,89.27s-2.36-.46-5.24-1.13-5.21-1.26-5.2-1.31,2.36.46,5.24,1.14S634.66,89.23,634.65,89.27Z" style="fill:#ebebeb"></path><path d="M638.67,82.82s-1.53.79-3.47,1.66S631.67,86,631.65,86s1.54-.79,3.48-1.66S638.65,82.78,638.67,82.82Z" style="fill:#ebebeb"></path><path d="M647,84.49a15,15,0,0,1-2.34-.07,14.67,14.67,0,0,1-2.33-.24,15,15,0,0,1,2.34.07A18.43,18.43,0,0,1,647,84.49Z" style="fill:#ebebeb"></path><path d="M641.4,87.62a5.58,5.58,0,0,1-1.1-.18c-.68-.13-1.61-.35-2.63-.64s-1.93-.59-2.58-.83a6.84,6.84,0,0,1-1-.42,6.47,6.47,0,0,1,1.08.31c.66.2,1.57.48,2.59.77s1.94.52,2.6.69A8.77,8.77,0,0,1,641.4,87.62Z" style="fill:#ebebeb"></path><path d="M615.38,87.77a2,2,0,1,1-2.78,0A2,2,0,0,1,615.38,87.77Z" style="fill:#e0e0e0"></path><path d="M620,83.69A2.89,2.89,0,1,1,617,80.83,2.9,2.9,0,0,1,620,83.69Z" style="fill:#e0e0e0"></path><path d="M612.13,85a1.54,1.54,0,1,1,0-2.17A1.55,1.55,0,0,1,612.13,85Z" style="fill:#e0e0e0"></path><path d="M611.38,88c-.34.2-1.32-.37-1.52-.71s.46-.31.8-.51a.71.71,0,0,1,1,.25A.7.7,0,0,1,611.38,88Z" style="fill:#e0e0e0"></path><path d="M616.78,90s4.34,6,3.25,11.27c0,0,6.49-1.81,8.91,4.23,0,0,6.94-.76,8,4.42,0,0,6.45-1.74,9,2.11,0,0-3.36-5.41-2.94-7.62,0,0-6.52-1.35-6.84-7.76,0,0-6.16-1-6.83-6.71C629.42,89.92,619.61,91.8,616.78,90Z" style="fill:#f5f5f5"></path><path d="M645.11,110.78l-.08,0-.22-.15L644,110l-3.05-2.21c-2.58-1.86-6.12-4.46-10-7.33s-7.45-5.48-10-7.37l-3-2.25-.81-.62-.21-.17c-.05,0-.07-.05-.07-.06l.08,0,.22.15.83.59L621,93c2.58,1.87,6.13,4.46,10,7.33s7.45,5.48,10,7.37l3,2.26.82.61.21.17Z" style="fill:#e0e0e0"></path><path d="M630,103.92a5.85,5.85,0,0,1-.45-1c-.26-.6-.61-1.43-1-2.33s-.81-1.72-1.1-2.3a6.3,6.3,0,0,1-.43-1,5.61,5.61,0,0,1,.55.9c.31.57.72,1.38,1.14,2.28s.76,1.75,1,2.36A5.82,5.82,0,0,1,630,103.92Z" style="fill:#e0e0e0"></path><path d="M631.48,97.18a1.74,1.74,0,0,1-.33-.07l-.88-.25c-.74-.21-1.75-.52-2.87-.87s-2.13-.68-2.86-.92l-.86-.3a1.35,1.35,0,0,1-.31-.13,1.11,1.11,0,0,1,.33.07l.88.24c.74.21,1.75.52,2.87.87s2.13.68,2.86.92l.86.3C631.37,97.12,631.48,97.16,631.48,97.18Z" style="fill:#e0e0e0"></path><path d="M637.73,108.92a.88.88,0,0,1-.11-.23c-.07-.17-.16-.38-.26-.65-.22-.54-.54-1.28-.94-2.08s-.81-1.5-1.12-2a7.1,7.1,0,0,1-.48-.82,4.53,4.53,0,0,1,.59.76,18.59,18.59,0,0,1,1.17,2,17.61,17.61,0,0,1,.9,2.12c.09.28.16.51.2.67A.94.94,0,0,1,637.73,108.92Z" style="fill:#e0e0e0"></path><path d="M613.29,80.94,613,69s-5.11,1.17-5.53-5c0,0-4.75,2.6-5-2.3,0,0-4.36,1-5.49-1.59,0,0,2.77,3.78,1.58,5.5,0,0,5.31,1.64,3,5.19,0,0,6.07,2.53,5.16,8C606.66,78.7,611.57,78,613.29,80.94Z" style="fill:#e0e0e0"></path><path d="M597.58,60.51l0,0,.14.14.54.54c.24.24.53.53.85.87s.7.73,1.1,1.17l.63.69.68.75c.47.52,1,1.09,1.48,1.68,1,1.2,2.12,2.53,3.24,4s2.15,2.83,3.06,4.11c.45.64.88,1.25,1.27,1.84.2.29.39.56.57.84l.51.78c.33.49.62,1,.87,1.35s.47.74.64,1,.3.5.4.65l.1.18,0,.06s0,0,0-.06l-.12-.16-.41-.65-.66-1L611.63,78l-.52-.77-.57-.84c-.39-.58-.83-1.18-1.28-1.82-.92-1.28-2-2.67-3.07-4.1s-2.21-2.77-3.23-4l-1.46-1.68-.68-.76-.62-.69-1.09-1.18c-.32-.35-.6-.64-.83-.88l-.52-.56-.14-.15Z" style="fill:#ebebeb"></path><path d="M606.32,73.93s1.13.68,2.49,1.59,2.43,1.65,2.42,1.68-1.14-.68-2.49-1.58S606.3,74,606.32,73.93Z" style="fill:#ebebeb"></path><path d="M609,69.69s.52,1.58,1.09,3.56,1,3.58,1,3.59-.52-1.58-1.09-3.56S609,69.7,609,69.69Z" style="fill:#ebebeb"></path><path d="M603.7,69.45s1,.66,2.19,1.53S608,72.59,608,72.62a26.63,26.63,0,0,1-2.18-1.54C604.63,70.21,603.68,69.47,603.7,69.45Z" style="fill:#ebebeb"></path><path d="M601.88,63.83a10.61,10.61,0,0,1,.76,1.44,11.92,11.92,0,0,1,.64,1.49,10,10,0,0,1-.75-1.44A11.21,11.21,0,0,1,601.88,63.83Z" style="fill:#ebebeb"></path><path d="M605.68,66.16a3.85,3.85,0,0,1,.27.73c.15.46.33,1.09.5,1.81s.3,1.37.38,1.84a3.53,3.53,0,0,1,.09.77,5.45,5.45,0,0,1-.17-.75c-.1-.47-.24-1.12-.42-1.83s-.34-1.35-.46-1.82A6.88,6.88,0,0,1,605.68,66.16Z" style="fill:#ebebeb"></path><path d="M615.22,80.36s2.41-4.76,6-5.89c0,0-3.31-3.31-.47-6.84,0,0-2.82-3.94-.06-6.37,0,0-3.5-3.76-2-6.64,0,0-1.89,4.32-3.36,4.81,0,0,1.4,4.41-2.38,6.79,0,0,1.49,4.07-1.74,6.41C611.15,72.63,615.36,78,615.22,80.36Z" style="fill:#f5f5f5"></path><path d="M618.45,56v.06l0,.18c0,.17,0,.41-.08.71-.07.62-.17,1.5-.29,2.6-.26,2.19-.62,5.22-1,8.57s-.79,6.38-1.07,8.57c-.14,1.09-.25,2-.33,2.59,0,.3-.08.54-.1.71l0,.18a.28.28,0,0,0,0,.06s0,0,0-.06V80l.08-.7c.07-.62.17-1.51.3-2.6.25-2.2.62-5.23,1-8.58s.78-6.37,1.06-8.56c.14-1.09.26-2,.34-2.6,0-.3.07-.54.1-.7l0-.18Z" style="fill:#e0e0e0"></path><path d="M619.42,67.5a6.08,6.08,0,0,1-.43.6c-.28.36-.66.85-1.06,1.41s-.77,1.08-1,1.45a4.12,4.12,0,0,1-.44.59,4.48,4.48,0,0,1,.36-.64c.24-.38.59-.91,1-1.47s.8-1,1.09-1.4A3.09,3.09,0,0,1,619.42,67.5Z" style="fill:#e0e0e0"></path><path d="M614.84,68.92a.74.74,0,0,1,.08.22c0,.15.08.36.14.62.13.52.29,1.24.45,2s.32,1.52.42,2c.05.26.09.47.11.62a.8.8,0,0,1,0,.23.8.8,0,0,1,0-.23c0-.14-.09-.35-.15-.61-.12-.52-.28-1.24-.45-2s-.31-1.52-.41-2c-.05-.27-.09-.48-.11-.63S614.84,68.92,614.84,68.92Z" style="fill:#e0e0e0"></path><path d="M619.83,61.14s0,.06-.1.15l-.3.37c-.26.32-.6.77-.95,1.28s-.63,1-.83,1.36a3.47,3.47,0,0,1-.33.57,3.13,3.13,0,0,1,.26-.61,11.54,11.54,0,0,1,1.78-2.65,4.32,4.32,0,0,1,.34-.36C619.78,61.17,619.83,61.13,619.83,61.14Z" style="fill:#e0e0e0"></path><path d="M611.36,88.05s-7.26-6.76-5.88-11.79c0,0-5.9,3.67-7.78-4.6,0,0-3.47,3.55-6-3,0,0-2.92,1.37-6.84-3.07,0,0,3.85,5.23,2,7.5,0,0,6.39,2,4.6,5.63,0,0,8.21,2.09,5.42,7.69C596.84,86.36,605.84,84.48,611.36,88.05Z" style="fill:#ebebeb"></path><path d="M587.18,68.51l.22.18.6.51,2.23,1.92,3.32,2.81,2,1.64,2.14,1.74c.74.59,1.47,1.16,2.16,1.72l2,1.58c1.29,1,2.46,1.9,3.45,2.65L607.66,85c.27.21.49.37.63.49a1.19,1.19,0,0,1,.22.18l-.24-.15-.65-.46-1-.73-1.35-1c-1-.73-2.18-1.62-3.48-2.62-.65-.5-1.33-1-2-1.58s-1.43-1.12-2.17-1.72l-2.14-1.74-2-1.65c-1.25-1.06-2.37-2-3.3-2.84-.47-.41-.89-.78-1.25-1.11s-.69-.61-.94-.85l-.59-.54C587.24,68.59,587.17,68.52,587.18,68.51Z" style="fill:#f5f5f5"></path><path d="M597.85,80.4a2.93,2.93,0,0,1,.8,0c.49,0,1.17.14,1.9.28s1.4.32,1.87.46a4,4,0,0,1,.75.28,3.32,3.32,0,0,1-.78-.15c-.48-.12-1.14-.27-1.87-.42s-1.4-.25-1.89-.32A5.26,5.26,0,0,1,597.85,80.4Z" style="fill:#f5f5f5"></path><path d="M601.44,80.28a1.41,1.41,0,0,1-.24-.19l-.26-.24c-.1-.1-.22-.21-.34-.34s-.54-.57-.84-.92L599.3,78c-.16-.2-.31-.41-.47-.63s-.3-.44-.44-.66-.26-.42-.38-.62c-.24-.41-.44-.78-.59-1.1l-.21-.43c-.05-.13-.1-.24-.14-.33a1.38,1.38,0,0,1-.1-.3s.07.09.16.27.11.19.17.31.14.27.23.42c.17.31.37.67.62,1.07.12.2.25.41.39.62s.28.43.44.65.3.43.46.63.3.39.45.57c.29.36.56.68.8.94s.22.25.32.36l.24.26C601.38,80.19,601.45,80.27,601.44,80.28Z" style="fill:#f5f5f5"></path><path d="M588.21,71.85a3.34,3.34,0,0,1,.74.22c.45.15,1.07.37,1.75.63l1.73.68a3.35,3.35,0,0,1,.7.33,3.6,3.6,0,0,1-.74-.21c-.45-.16-1.07-.38-1.75-.64s-1.29-.49-1.73-.68A2.83,2.83,0,0,1,588.21,71.85Z" style="fill:#f5f5f5"></path><path d="M610.33,88.79s-7.26.36-11-3.1c0,0-1.69,6.15-7.78,5.18,0,0-2.76,6-7.5,4.38,0,0-2.08,6.68-6.47,6.91,0,0,6.39-.69,8,.73,0,0,4.27-4.64,9.63-1.78,0,0,3.82-4.51,8.78-2.27C603.94,98.84,607.47,90.2,610.33,88.79Z" style="fill:#f5f5f5"></path><path d="M579.36,101.42l.07,0,.23-.1.89-.39,3.28-1.41,10.83-4.58c4.24-1.78,8.08-3.38,10.86-4.53l3.3-1.36.9-.36.24-.09s.08,0,.08,0l-.08,0-.23.1-.88.39-3.28,1.41c-2.77,1.18-6.6,2.8-10.84,4.58s-8.07,3.38-10.85,4.53l-3.3,1.36-.9.36-.24.09C579.39,101.42,579.36,101.43,579.36,101.42Z" style="fill:#e0e0e0"></path><path d="M592.27,92.52a7,7,0,0,1,1,.1l2.39.3,2.4.23a7,7,0,0,1,1,.11,4.07,4.07,0,0,1-1,0c-.62,0-1.47-.08-2.41-.18s-1.78-.23-2.39-.34A5.17,5.17,0,0,1,592.27,92.52Z" style="fill:#e0e0e0"></path><path d="M597,97a9.65,9.65,0,0,1,.84-.83c.53-.49,1.28-1.17,2.11-1.91s1.58-1.4,2.14-1.87a8.83,8.83,0,0,1,.92-.74,7,7,0,0,1-.84.83c-.53.5-1.28,1.18-2.11,1.91s-1.58,1.4-2.14,1.87A6.39,6.39,0,0,1,597,97Z" style="fill:#e0e0e0"></path><path d="M584.46,96.33a.94.94,0,0,1,.25,0l.65.1c.54.09,1.3.19,2.15.26s1.6.07,2.16.06a5.92,5.92,0,0,1,.9,0,3.74,3.74,0,0,1-.9.11,15.91,15.91,0,0,1-2.18,0,15.61,15.61,0,0,1-2.16-.3l-.64-.16A.92.92,0,0,1,584.46,96.33Z" style="fill:#e0e0e0"></path><rect x="81.84" y="162.48" width="327.65" height="289.94" style="fill:#f5f5f5"></rect><rect x="135.34" y="223.25" width="227.61" height="227.61" style="fill:#e0e0e0"></rect><path d="M363,450.86s0-.37,0-1.08,0-1.77,0-3.14c0-2.79,0-6.89-.05-12.23,0-10.7-.06-26.36-.1-46.29-.06-39.82-.13-96.67-.22-164.87l.42.41-227.59.07h0l.48-.48c0,83.35,0,161.46-.06,227.61l-.42-.41,164.88.21,46.29.11,12.22.05,3.15,0,1.08,0s-.34,0-1,0l-3.1,0-12.14,0-46.19.11-165.15.21h-.41v-.42c0-66.15,0-144.26-.06-227.61v-.48h.5l227.59.07h.41v.41c-.09,68.31-.16,125.25-.21,165.13-.05,19.89-.08,35.52-.11,46.2,0,5.31,0,9.38-.05,12.15,0,1.35,0,2.39,0,3.1S363,450.86,363,450.86Z" style="fill:#e0e0e0"></path><path d="M190.23,419.9C175.88,398.43,178,367.39,195.06,348c3-3.35,6.71-6.55,11.19-6.74s9.16,4.22,7.64,8.43c-1.09,3-4.75,4.7-5.4,7.84-.75,3.65,3.53,6.84,7.19,6.14s6.28-4,7.65-7.47,1.82-7.22,3-10.74,3.48-7,7-8.18c3.07-1,6.46-.13,9.65-.66,6-1,10.13-6.93,11.09-12.91s-.52-12.05-1.86-18-2.54-12.1-1-18c2.27-8.71,10.6-15.12,19.52-16.33s18.08,2.27,24.92,8.12,11.53,13.88,14.68,22.31a80.38,80.38,0,0,1-24.24,90.27c-5.18,4.26-10.94,7.91-15.3,13s-7.18,12.19-5.08,18.57" style="fill:#fafafa"></path><path d="M206.39,422.23c-3.09-5.21-6.25-10.64-6.85-16.67s2.14-12.84,7.81-15c3.82-1.45,8.19-.57,12.06-1.87,5.52-1.86,8.6-7.53,11.75-12.42a78.31,78.31,0,0,1,20-21c2.8-2,5.84-3.9,9.24-4.51s7.26.26,9.43,2.95c3.39,4.19,1.34,10.6-2.06,14.79s-8,7.49-10.37,12.35c-2.81,5.81-1.81,12.64-1.52,19.09s-.65,13.8-5.85,17.64c-2.14,1.58-4.77,2.36-7,3.84s-4,4.15-3.25,6.69" style="fill:#ebebeb"></path><path d="M279.68,333.69a6.24,6.24,0,1,0,.51-.53" style="fill:#ebebeb"></path><g style="clip-path:url(#freepik--clip-path--inject-7)"><path d="M188.93,419.27h0a15.35,15.35,0,0,0-13.32,7.16A15.13,15.13,0,0,0,180,447.37a14.68,14.68,0,0,0,7.57,2.27h0l74.8.9L267,421.14Z" style="fill:#f5f5f5"></path><path d="M173.38,432.22a9.3,9.3,0,0,1,2.75-1.67,20.42,20.42,0,0,1,8.63-1.39,42.59,42.59,0,0,1,12.72,2.6c2.31.75,4.73,1.57,7.29,2.2a26.67,26.67,0,0,0,8,.87c5.55-.38,10.39-3.11,15.27-3.95a24.84,24.84,0,0,1,12.88,1.34,59.13,59.13,0,0,1,8,3.6c.92.48,1.62.87,2.09,1.14a4.3,4.3,0,0,1,.7.45,3.56,3.56,0,0,1-.77-.32l-2.14-1a70.78,70.78,0,0,0-8-3.38,24.9,24.9,0,0,0-12.6-1.16,56.9,56.9,0,0,0-7.28,2.16,31.6,31.6,0,0,1-8.07,1.85,26.89,26.89,0,0,1-8.23-.9c-2.59-.65-5-1.49-7.33-2.26a43.1,43.1,0,0,0-12.53-2.71,21.24,21.24,0,0,0-8.51,1.14A24.2,24.2,0,0,0,173.38,432.22Z" style="fill:#e0e0e0"></path><path d="M225.31,440.05s.15-.12.48-.27a6.24,6.24,0,0,1,1.56-.43,6.75,6.75,0,0,1,5.62,1.91l.21.2-.27.15a15.65,15.65,0,0,1-12.84.69,8.5,8.5,0,0,1-1.82-.89,2.39,2.39,0,0,1-1.2-1.9,2.31,2.31,0,0,1,1.4-1.84c.64-.33,1.27-.66,2-.93a21.38,21.38,0,0,1,16.48.08,11.1,11.1,0,0,1,3.23,1.95,3.69,3.69,0,0,1,1.2,3.48,5.34,5.34,0,0,1-2,2.88,9.59,9.59,0,0,1-2.89,1.49,15.6,15.6,0,0,1-5.68.72,29.24,29.24,0,0,1-8-1.75c-.92-.31-1.62-.58-2.1-.77a2.59,2.59,0,0,1-.71-.32,4.05,4.05,0,0,1,.76.19l2.13.64a31.62,31.62,0,0,0,8,1.5,15.13,15.13,0,0,0,5.47-.78,8.62,8.62,0,0,0,2.68-1.41,4.68,4.68,0,0,0,1.73-2.53,3,3,0,0,0-1-2.85,10.72,10.72,0,0,0-3-1.8,20.94,20.94,0,0,0-15.94-.07,18,18,0,0,0-1.88.88c-.58.32-1.07.74-1.07,1.26a1.76,1.76,0,0,0,.91,1.34,8.7,8.7,0,0,0,1.67.84,15.43,15.43,0,0,0,12.41-.49l-.05.34a6.62,6.62,0,0,0-5.29-2A10.5,10.5,0,0,0,225.31,440.05Z" style="fill:#e0e0e0"></path><path d="M264.42,425.12c0,.07-1.12-.42-3.17-1.08a50.37,50.37,0,0,0-8.84-2.06,42.14,42.14,0,0,0-13.39.21c-5,.86-10.08,3.35-15.73,5.08s-11.49,2.55-16.51,1-9-3.72-12.55-5.17a38.9,38.9,0,0,0-4.87-1.74,21.89,21.89,0,0,0-3.83-.64l-1.42,0c-.42,0-.76.06-1,.07a4.39,4.39,0,0,1-.87,0,3.09,3.09,0,0,1,.85-.18c.28,0,.63-.11,1-.15l1.44,0a20.68,20.68,0,0,1,3.92.53,38.45,38.45,0,0,1,5,1.66c3.6,1.4,7.66,3.65,12.53,5s10.58.7,16.13-1.08,10.7-4.2,15.82-5a41.49,41.49,0,0,1,13.58-.06,44.84,44.84,0,0,1,8.86,2.3c1,.37,1.79.7,2.31.94A4.32,4.32,0,0,1,264.42,425.12Z" style="fill:#e0e0e0"></path><path d="M255.84,440.31a3.84,3.84,0,0,1-.65.63c-.45.39-1.11.94-2,1.63a55.56,55.56,0,0,1-7.95,5.21,42.41,42.41,0,0,1-13.32,4.62,31.79,31.79,0,0,1-17.09-1.79c-5.73-2.33-10.5-5.78-15.1-8.35s-9-4.42-13-4.86a18.93,18.93,0,0,0-9.22,1.06,23.69,23.69,0,0,0-3.07,1.59,9.93,9.93,0,0,1,3-1.85,18.53,18.53,0,0,1,9.39-1.3c4.05.39,8.62,2.17,13.24,4.79s9.41,6,15,8.25a31.3,31.3,0,0,0,16.72,1.8A42.56,42.56,0,0,0,245,447.33a62.38,62.38,0,0,0,8-5l2.08-1.53A5.82,5.82,0,0,1,255.84,440.31Z" style="fill:#e0e0e0"></path></g><path d="M271.59,423.08a14.93,14.93,0,1,1-20.35,4.75A14.77,14.77,0,0,1,271.59,423.08Z" style="fill:#ebebeb"></path><path d="M263.84,423.86a2.54,2.54,0,0,1,.67.19c.43.15,1.06.39,1.85.74a28.18,28.18,0,0,1,2.81,1.44,12,12,0,0,1,3.26,2.68,8.76,8.76,0,0,1,2,4.73,13.88,13.88,0,0,1-.72,5.83,11,11,0,0,1-3.71,5.34,9.27,9.27,0,0,1-6.78,1.53,15.92,15.92,0,0,1-6.54-2.41,8.27,8.27,0,0,1-3.78-5.26,12.12,12.12,0,0,1,.45-5.86,20.2,20.2,0,0,1,2.05-4.67,9.06,9.06,0,0,1,5.79-4.37,5.87,5.87,0,0,1,2-.08,1.89,1.89,0,0,1,.68.17,9.12,9.12,0,0,0-2.62.18,8.93,8.93,0,0,0-5.41,4.37,19.33,19.33,0,0,0-1.92,4.57,11.75,11.75,0,0,0-.38,5.56,7.66,7.66,0,0,0,3.53,4.81,15.56,15.56,0,0,0,6.24,2.28,8.61,8.61,0,0,0,6.28-1.39,10.35,10.35,0,0,0,3.49-5,13.46,13.46,0,0,0,.76-5.55,8.24,8.24,0,0,0-1.78-4.47,11.83,11.83,0,0,0-3.07-2.66c-1-.65-1.95-1.14-2.72-1.53C264.71,424.27,263.82,423.91,263.84,423.86Z" style="fill:#e0e0e0"></path><path d="M265.28,427.9s.13-.11.42-.08a2,2,0,0,1,1,.71,6.22,6.22,0,0,1,1,1.67l1,2.28c.37.86.82,1.76,1.2,2.82a5.09,5.09,0,0,1,.09,3.62,4.84,4.84,0,0,1-3.06,2.6,7.32,7.32,0,0,1-4.27-.14,10.38,10.38,0,0,1-3.79-2,3.84,3.84,0,0,1-1.13-1.8,4.88,4.88,0,0,1-.11-2,23.33,23.33,0,0,1,.88-3.42,10,10,0,0,1,1.34-2.8,4.63,4.63,0,0,1,3.89-2.07,2.68,2.68,0,0,1,1.18.31c.25.13.36.24.35.26a5,5,0,0,0-1.54-.3,4.49,4.49,0,0,0-3.47,2.09,17.19,17.19,0,0,0-2,6,3.42,3.42,0,0,0,1.06,3.2,10,10,0,0,0,3.51,1.79,6.73,6.73,0,0,0,3.86.16,4.22,4.22,0,0,0,2.66-2.19,4.47,4.47,0,0,0-.05-3.18c-.33-1-.76-1.94-1.09-2.8l-.94-2.32a6.34,6.34,0,0,0-.8-1.65,2.15,2.15,0,0,0-.84-.75C265.43,427.89,265.28,427.93,265.28,427.9Z" style="fill:#e0e0e0"></path><path d="M184.86,452.42s0-.42,0-1.21,0-2,0-3.47c0-3.07-.05-7.54-.08-13.28,0-11.53-.09-28.15-.15-48.68s-.09-44.95-.14-72.06q0-10.17,0-20.81c0-3.55,0-7.13,0-10.75V276.7a26.86,26.86,0,0,0-.39-5.39,18.91,18.91,0,0,0-9.49-12.77,18.65,18.65,0,0,0-10.79-2.18,20.27,20.27,0,0,0-5.45,1.36,20.61,20.61,0,0,0-4.83,2.94,19.46,19.46,0,0,0-3.76,4.28,19,19,0,0,0-2.65,6.58,37.74,37.74,0,0,0-.35,7.16V293c0,9.48,0,18.78,0,27.85,0,18.15,0,35.42-.05,51.51-.06,32.17-.11,59.64-.15,80l-.27-.27,28.4.15,7.6.07,2,0,.68,0s-.2,0-.63,0l-1.92,0-7.54.07-28.56.15H146v-.27c0-20.4-.1-47.87-.16-80,0-16.09,0-33.36,0-51.51,0-9.07,0-18.37,0-27.85V278.68a37.17,37.17,0,0,1,.36-7.34,19.85,19.85,0,0,1,2.79-6.92,20.42,20.42,0,0,1,4-4.49,19.63,19.63,0,0,1,10.8-4.52,19.71,19.71,0,0,1,16,5.76,21.54,21.54,0,0,1,3.4,4.61,21.77,21.77,0,0,1,1.94,5.34,27.85,27.85,0,0,1,.4,5.59v5.47c0,3.64,0,7.23,0,10.79q0,10.68,0,20.89c-.05,27.18-.1,51.67-.14,72.24s-.12,37.09-.15,48.6c0,5.7-.06,10.13-.08,13.17,0,1.48,0,2.61,0,3.41S184.86,452.42,184.86,452.42Z" style="fill:#ebebeb"></path><path d="M224,452.42s0-.42,0-1.21,0-2,0-3.47c0-3.07,0-7.54-.07-13.28,0-11.53-.09-28.15-.16-48.68s-.09-44.95-.14-72.06q0-10.17,0-20.81,0-5.32,0-10.75V276.7a26.86,26.86,0,0,0-.39-5.39,20.68,20.68,0,0,0-1.84-5.09,21,21,0,0,0-3.25-4.38,20.59,20.59,0,0,0-4.4-3.3,18.64,18.64,0,0,0-10.78-2.18,20.24,20.24,0,0,0-5.46,1.36,20.61,20.61,0,0,0-4.83,2.94,19.42,19.42,0,0,0-3.75,4.28,18.57,18.57,0,0,0-2.65,6.58,36.93,36.93,0,0,0-.36,7.16V293c0,9.48,0,18.78,0,27.85,0,18.15,0,35.42,0,51.51-.07,32.17-.12,59.64-.16,80l-.26-.27,28.4.15,7.59.07,2,0,.69,0s-.21,0-.64,0l-1.92,0-7.54.07-28.55.15h-.27v-.27c0-20.4-.09-47.87-.16-80,0-16.09,0-33.36,0-51.51,0-9.07,0-18.37,0-27.85V278.68a37.18,37.18,0,0,1,.37-7.34,19.64,19.64,0,0,1,2.78-6.92,20.42,20.42,0,0,1,3.95-4.49,21.32,21.32,0,0,1,5.08-3.09,21.06,21.06,0,0,1,5.72-1.43,19.7,19.7,0,0,1,11.33,2.29,21.83,21.83,0,0,1,4.62,3.47,19.74,19.74,0,0,1,5.34,9.95,27.13,27.13,0,0,1,.4,5.59v5.47c0,3.64,0,7.23,0,10.79q0,10.68,0,20.89c-.05,27.18-.1,51.67-.14,72.24s-.12,37.09-.15,48.6c0,5.7-.06,10.13-.07,13.17,0,1.48,0,2.61,0,3.41S224,452.42,224,452.42Z" style="fill:#ebebeb"></path><path d="M263.21,452.42s0-.42,0-1.21,0-2,0-3.47c0-3.07,0-7.54-.07-13.28,0-11.53-.09-28.15-.16-48.68s-.08-44.95-.14-72.06q0-10.17,0-20.81V282.16c0-1.81,0-3.63,0-5.46a26.85,26.85,0,0,0-.38-5.39,18.82,18.82,0,0,0-5.1-9.47,20.59,20.59,0,0,0-4.4-3.3,18.64,18.64,0,0,0-10.78-2.18,20.17,20.17,0,0,0-5.45,1.36,20.41,20.41,0,0,0-4.83,2.94,19.46,19.46,0,0,0-3.76,4.28,18.57,18.57,0,0,0-2.65,6.58,36.16,36.16,0,0,0-.35,7.16c0,4.82,0,9.61,0,14.34,0,9.48,0,18.78,0,27.85,0,18.15,0,35.42,0,51.51-.06,32.17-.12,59.64-.16,80l-.26-.27,28.4.15,7.59.07,2,0,.69,0-.63,0-1.93,0-7.53.07-28.56.15h-.27v-.27c0-20.4-.09-47.87-.15-80,0-16.09,0-33.36,0-51.51,0-9.07,0-18.37,0-27.85V278.68a38,38,0,0,1,.37-7.34,19.64,19.64,0,0,1,2.78-6.92,20.42,20.42,0,0,1,4-4.49,21.51,21.51,0,0,1,5.08-3.09,21.13,21.13,0,0,1,5.73-1.43,19.69,19.69,0,0,1,11.32,2.29,19.94,19.94,0,0,1,8,8.08,21.34,21.34,0,0,1,1.93,5.34,27.86,27.86,0,0,1,.41,5.59c0,1.83,0,3.66,0,5.47V293q0,10.68,0,20.89c-.05,27.18-.09,51.67-.13,72.24s-.12,37.09-.16,48.6c0,5.7-.05,10.13-.07,13.17,0,1.48,0,2.61,0,3.41S263.21,452.42,263.21,452.42Z" style="fill:#ebebeb"></path><path d="M302.38,452.42s0-.42,0-1.21,0-2,0-3.47c0-3.07,0-7.54-.07-13.28,0-11.53-.09-28.15-.16-48.68s-.08-44.95-.13-72.06q0-10.17,0-20.81,0-5.32,0-10.75V276.7a26.86,26.86,0,0,0-.39-5.39,20.71,20.71,0,0,0-1.85-5.09,19,19,0,0,0-7.65-7.68,18.6,18.6,0,0,0-10.78-2.18,20.27,20.27,0,0,0-5.45,1.36,20.61,20.61,0,0,0-4.83,2.94,19.46,19.46,0,0,0-3.76,4.28,18.75,18.75,0,0,0-2.65,6.58,36.16,36.16,0,0,0-.35,7.16c0,4.82,0,9.61,0,14.34,0,9.48,0,18.78,0,27.85,0,18.15,0,35.42,0,51.51-.06,32.17-.11,59.64-.15,80l-.27-.27,28.4.15,7.6.07,2,0,.68,0s-.2,0-.63,0l-1.93,0-7.53.07-28.56.15h-.27v-.27c0-20.4-.09-47.87-.15-80,0-16.09,0-33.36,0-51.51,0-9.07,0-18.37,0-27.85,0-4.73,0-9.52,0-14.34a38,38,0,0,1,.37-7.34,19.66,19.66,0,0,1,2.79-6.92,20.37,20.37,0,0,1,3.94-4.49,21.51,21.51,0,0,1,5.08-3.09,21.13,21.13,0,0,1,5.73-1.43,19.71,19.71,0,0,1,15.95,5.76,19.95,19.95,0,0,1,5.34,9.95,28.6,28.6,0,0,1,.4,5.59v5.47c0,3.64,0,7.23,0,10.79q0,10.68,0,20.89c-.05,27.18-.1,51.67-.14,72.24s-.12,37.09-.16,48.6c0,5.7,0,10.13-.07,13.17,0,1.48,0,2.61,0,3.41S302.38,452.42,302.38,452.42Z" style="fill:#ebebeb"></path><path d="M341.55,452.42s0-.42,0-1.21,0-2,0-3.47c0-3.07,0-7.54-.07-13.28,0-11.53-.09-28.15-.15-48.68s-.09-44.95-.14-72.06q0-10.17,0-20.81c0-3.55,0-7.13,0-10.75V276.7a26.86,26.86,0,0,0-.39-5.39,18.91,18.91,0,0,0-9.49-12.77,18.65,18.65,0,0,0-10.79-2.18,20.27,20.27,0,0,0-5.45,1.36,20.61,20.61,0,0,0-4.83,2.94,19.73,19.73,0,0,0-3.76,4.28,19,19,0,0,0-2.65,6.58,37.74,37.74,0,0,0-.35,7.16V293c0,9.48,0,18.78,0,27.85,0,18.15,0,35.42-.05,51.51-.06,32.17-.11,59.64-.15,80l-.27-.27,28.4.15,7.6.07,2,0,.68,0s-.2,0-.63,0l-1.92,0-7.54.07-28.56.15h-.26v-.27c0-20.4-.1-47.87-.16-80,0-16.09,0-33.36,0-51.51,0-9.07,0-18.37,0-27.85V278.68a37.17,37.17,0,0,1,.36-7.34,19.85,19.85,0,0,1,2.79-6.92,20.42,20.42,0,0,1,3.95-4.49,19.63,19.63,0,0,1,10.8-4.52,19.71,19.71,0,0,1,15.95,5.76,21.54,21.54,0,0,1,3.4,4.61,21.77,21.77,0,0,1,1.94,5.34,27.85,27.85,0,0,1,.4,5.59v5.47c0,3.64,0,7.23,0,10.79q0,10.68,0,20.89c-.05,27.18-.1,51.67-.14,72.24s-.12,37.09-.15,48.6c0,5.7-.06,10.13-.08,13.17,0,1.48,0,2.61,0,3.41S341.55,452.42,341.55,452.42Z" style="fill:#ebebeb"></path><path d="M341.55,275.84c0,.26-43.54.48-97.25.48S147,276.1,147,275.84s43.54-.48,97.26-.48S341.55,275.57,341.55,275.84Z" style="fill:#ebebeb"></path><polygon points="459.31 189.27 32.02 189.27 30.21 135.69 457.5 135.69 459.31 189.27" style="fill:#f5f5f5"></polygon><polygon points="81.84 194.59 409.49 206.47 409.49 189.88 81.84 189.88 81.84 194.59" style="fill:#e0e0e0"></polygon><path d="M460,189.88c0,.27-95.85.48-214.06.48s-214.07-.21-214.07-.48,95.82-.48,214.07-.48S460,189.62,460,189.88Z" style="fill:#e0e0e0"></path><path d="M135.34,289.7c0,.26-12,.47-26.92.47S81.5,290,81.5,289.7s12-.48,26.92-.48S135.34,289.43,135.34,289.7Z" style="fill:#e0e0e0"></path><path d="M112.13,313.28c0,.26-6.86.48-15.31.48s-15.32-.22-15.32-.48,6.85-.48,15.32-.48S112.13,313,112.13,313.28Z" style="fill:#e0e0e0"></path><path d="M393.19,323.44c0,.27-6.86.48-15.32.48s-15.32-.21-15.32-.48,6.86-.48,15.32-.48S393.19,323.18,393.19,323.44Z" style="fill:#e0e0e0"></path><path d="M134.54,260.34c0,.27-12,.48-26.92.48s-26.93-.21-26.93-.48,12.06-.48,26.93-.48S134.54,260.08,134.54,260.34Z" style="fill:#e0e0e0"></path><path d="M109.64,289.29c-.26,0-.48-6.21-.48-13.87s.22-13.87.48-13.87.48,6.21.48,13.87S109.91,289.29,109.64,289.29Z" style="fill:#e0e0e0"></path><path d="M409.49,347.87c0,.26-10.36.48-23.13.48s-23.14-.22-23.14-.48,10.36-.48,23.14-.48S409.49,347.6,409.49,347.87Z" style="fill:#e0e0e0"></path><path d="M398.75,372.26c-.26,0-.48-5.46-.48-12.2s.22-12.19.48-12.19.48,5.46.48,12.19S399,372.26,398.75,372.26Z" style="fill:#e0e0e0"></path><path d="M406.16,372.26c0,.26-9.68.48-21.6.48s-21.61-.22-21.61-.48,9.67-.48,21.61-.48S406.16,372,406.16,372.26Z" style="fill:#e0e0e0"></path><path d="M409.49,223.07c0,.27-73.43.48-164,.48s-164-.21-164-.48,73.41-.47,164-.47S409.49,222.81,409.49,223.07Z" style="fill:#e0e0e0"></path><path d="M409.49,201.21c0,.27-18.59.48-41.52.48s-41.53-.21-41.53-.48,18.59-.48,41.53-.48S409.49,201,409.49,201.21Z" style="fill:#e0e0e0"></path><path d="M344.7,223.81c-.26,0-.48-5.05-.48-11.27s.22-11.28.48-11.28.48,5.05.48,11.28S345,223.81,344.7,223.81Z" style="fill:#e0e0e0"></path><path d="M395.08,223.81c-.27,0-.48-5.05-.48-11.27s.21-11.28.48-11.28.47,5.05.47,11.28S395.34,223.81,395.08,223.81Z" style="fill:#e0e0e0"></path><rect x="64.92" y="450.2" width="367.55" height="25.91" style="fill:#f5f5f5"></rect><path d="M224.56,162.82c0,.27-30.39.48-67.86.48s-67.86-.21-67.86-.48,30.38-.48,67.86-.48S224.56,162.56,224.56,162.82Z" style="fill:#e0e0e0"></path><path d="M178.05,162.42c-.26,0-.47-6.21-.47-13.87s.21-13.87.47-13.87.48,6.21.48,13.87S178.31,162.42,178.05,162.42Z" style="fill:#e0e0e0"></path><path d="M147.25,190.14c-.26,0-.47-6.22-.47-13.88s.21-13.87.47-13.87.48,6.21.48,13.87S147.52,190.14,147.25,190.14Z" style="fill:#e0e0e0"></path><path d="M245.92,164.28c-.26,0-.48-6.22-.48-13.88s.22-13.87.48-13.87.48,6.21.48,13.87S246.19,164.28,245.92,164.28Z" style="fill:#e0e0e0"></path><path d="M212.93,190.14c-.27,0-.48-6.22-.48-13.88s.21-13.87.48-13.87.48,6.21.48,13.87S213.19,190.14,212.93,190.14Z" style="fill:#e0e0e0"></path><path d="M111.47,162.42c-.26,0-.47-6.21-.47-13.87s.21-13.87.47-13.87.48,6.21.48,13.87S111.74,162.42,111.47,162.42Z" style="fill:#e0e0e0"></path><path d="M432.47,450.2c0,.26-82.3.47-183.81.47s-183.83-.21-183.83-.47,82.29-.48,183.83-.48S432.47,449.93,432.47,450.2Z" style="fill:#e0e0e0"></path><path d="M327.06,167.62l37-10,11.65,46.2a11.24,11.24,0,0,1-7.12,13.34l-37,13.18A16.74,16.74,0,0,1,310.52,221h0a16.73,16.73,0,0,1,9.61-22.09l14.7-5.49Z" style="fill:#ebebeb"></path><path d="M365.41,166.14l-37.55,9a6.63,6.63,0,0,1-8-4.9h0a6.61,6.61,0,0,1,4.9-8l37.54-9a6.61,6.61,0,0,1,8,4.9h0A6.61,6.61,0,0,1,365.41,166.14Z" style="fill:#fafafa"></path><path d="M245.36,179.53l33.83-9.11,10.65,42.22a10.27,10.27,0,0,1-6.51,12.19l-33.82,12a15.3,15.3,0,0,1-19.26-8.55h0A15.3,15.3,0,0,1,239,208.14l13.44-5Z" style="fill:#ebebeb"></path><path d="M280.41,178.17l-34.31,8.2a6.06,6.06,0,0,1-7.29-4.48h0a6,6,0,0,1,4.48-7.28l34.31-8.2a6.06,6.06,0,0,1,7.29,4.48h0A6,6,0,0,1,280.41,178.17Z" style="fill:#fafafa"></path><path d="M169.39,179.53l33.82-9.11,10.65,42.22a10.27,10.27,0,0,1-6.51,12.19l-33.82,12a15.3,15.3,0,0,1-19.26-8.55h0a15.3,15.3,0,0,1,8.78-20.19l13.44-5Z" style="fill:#ebebeb"></path><path d="M204.43,178.17l-34.31,8.2a6,6,0,0,1-7.28-4.48h0a6,6,0,0,1,4.47-7.28l34.31-8.2a6.06,6.06,0,0,1,7.29,4.48h0A6,6,0,0,1,204.43,178.17Z" style="fill:#fafafa"></path><path d="M85.64,167l38.11-10.27,12,47.58A11.57,11.57,0,0,1,128.41,218l-38.1,13.57A17.22,17.22,0,0,1,68.61,222h0a17.23,17.23,0,0,1,9.89-22.74l15.14-5.65Z" style="fill:#ebebeb"></path><rect x="77.53" y="156.62" width="53.37" height="13.62" rx="4.29" transform="translate(-35.12 28.68) rotate(-13.43)" style="fill:#fafafa"></rect><rect x="176.6" y="84.55" width="58.6" height="50.72" style="fill:#e0e0e0"></rect><rect x="162.06" y="84.55" width="49.16" height="50.72" style="fill:#f5f5f5"></rect><path d="M181.44,84.55c.15.12-4.1,5.75-9.5,12.57s-9.91,12.24-10.06,12.12,4.1-5.75,9.5-12.57S181.28,84.43,181.44,84.55Z" style="fill:#ebebeb"></path><path d="M195.46,84.59c.16.11-7.23,10.32-16.5,22.78S162,129.85,161.88,129.73s7.23-10.32,16.51-22.78S195.31,84.47,195.46,84.59Z" style="fill:#ebebeb"></path><path d="M209.91,84.55c.16.11-8.17,11.58-18.6,25.61s-19,25.3-19.18,25.18,8.17-11.58,18.6-25.61S209.76,84.43,209.91,84.55Z" style="fill:#ebebeb"></path><path d="M223.85,84.54c.16.12-8,11.57-18.22,25.58s-18.64,25.27-18.8,25.15,8-11.56,18.22-25.57S223.69,84.43,223.85,84.54Z" style="fill:#ebebeb"></path><path d="M234.87,89.43c.15.12-7.38,10.52-16.83,23.22s-17.25,22.92-17.41,22.8,7.38-10.51,16.83-23.22S234.71,89.32,234.87,89.43Z" style="fill:#ebebeb"></path><path d="M234.88,109.61c.15.12-4.27,6-9.88,13.18s-10.28,12.86-10.44,12.74,4.27-6,9.88-13.18S234.72,109.49,234.88,109.61Z" style="fill:#ebebeb"></path><path d="M195.5,85.05a3,3,0,0,1-.14-.76,15.3,15.3,0,0,1-.11-2.19,18.72,18.72,0,0,1,3.27-10.17,6.31,6.31,0,0,1,2.08-2.18,1.65,1.65,0,0,1,1.75.17,2.5,2.5,0,0,1,.79,1.57,8.53,8.53,0,0,1-.37,3.37,16.91,16.91,0,0,1-3.23,6.36,16.27,16.27,0,0,1-2.71,2.66,2.5,2.5,0,0,1-2.05.61,4.77,4.77,0,0,1-1.79-1l-5.84-4.83c-1.84-1.54-3.83-3.13-4.61-5.44a4.22,4.22,0,0,1-.23-1.77A2,2,0,0,1,185,69.55a4.79,4.79,0,0,1,1.47.66,20.3,20.3,0,0,1,4.09,3.86,21.66,21.66,0,0,1,3.79,7.12,18,18,0,0,1,.5,2.14,3.64,3.64,0,0,1,.09.77c-.07,0-.24-1-.86-2.82a22.55,22.55,0,0,0-3.91-6.89,20.15,20.15,0,0,0-4-3.68c-.78-.49-1.84-.89-2.56-.39s-.75,1.68-.4,2.65c.69,2,2.58,3.58,4.44,5.11s3.84,3.15,5.83,4.8a4.09,4.09,0,0,0,1.5.91,1.81,1.81,0,0,0,1.47-.48,15.64,15.64,0,0,0,2.6-2.54,16.27,16.27,0,0,0,3.13-6.08,8.14,8.14,0,0,0,.39-3.1A1.81,1.81,0,0,0,202,70.4a1,1,0,0,0-1.12-.11A6,6,0,0,0,199,72.24a16.84,16.84,0,0,0-1.36,2.25,19.4,19.4,0,0,0-2.09,7.62C195.42,84,195.57,85,195.5,85.05Z" style="fill:#e0e0e0"></path><rect x="272.22" y="46.89" width="85.33" height="88.95" style="fill:#e0e0e0"></rect><rect x="266.44" y="46.89" width="85.33" height="88.95" style="fill:#fafafa"></rect><path d="M351.8,135.86H266.42v-89H351.8Zm-85.33-.05h85.27V46.91H266.47Z" style="fill:#e0e0e0"></path><rect x="277.91" y="58.84" width="62.39" height="65.03" style="fill:#fff"></rect><path d="M277.91,124.31a9.84,9.84,0,0,1-1.54,1.79c-1,1.05-2.39,2.47-4,4s-3,2.92-4.08,3.9a10,10,0,0,1-1.8,1.5,10.05,10.05,0,0,1,1.53-1.78c1-1.05,2.4-2.48,4-4s3-2.93,4.09-3.91A9.31,9.31,0,0,1,277.91,124.31Z" style="fill:#e0e0e0"></path><path d="M340.3,124.15a9.84,9.84,0,0,1,1.79,1.54c1.05,1,2.47,2.39,4,4s2.92,3,3.9,4.08a9.5,9.5,0,0,1,1.5,1.8,9.53,9.53,0,0,1-1.78-1.53c-1.05-1-2.48-2.4-4-4s-2.93-3-3.91-4.09A9.82,9.82,0,0,1,340.3,124.15Z" style="fill:#e0e0e0"></path><path d="M340.13,59a9.84,9.84,0,0,1,1.54-1.79c1-1.06,2.4-2.48,4-4s3-2.93,4.08-3.91a10.6,10.6,0,0,1,1.8-1.5A9.17,9.17,0,0,1,350,49.58c-1,1.06-2.4,2.48-4,4s-3,2.93-4.09,3.91A10.21,10.21,0,0,1,340.13,59Z" style="fill:#e0e0e0"></path><path d="M277.74,59.18A11,11,0,0,1,276,57.64c-1.05-1-2.47-2.4-4-4s-2.92-3-3.9-4.08a9.5,9.5,0,0,1-1.5-1.8,10.63,10.63,0,0,1,1.78,1.53c1.05,1,2.48,2.4,4,4s2.93,3,3.91,4.08A9.15,9.15,0,0,1,277.74,59.18Z" style="fill:#e0e0e0"></path><path d="M340.13,123.88a1.73,1.73,0,0,1,0-.32c0-.22,0-.52,0-.91,0-.81,0-2,0-3.51,0-3.08,0-7.56-.06-13.25,0-11.39-.07-27.62-.12-47l.24.24-62.21,0h0l.28-.28c0,23.87,0,46.2,0,65l-.24-.23,45,.12,12.66.06,3.34,0h.87l.3,0H339l-3.3,0-12.6.06-45.2.12h-.23v-.24c0-18.83,0-41.16,0-65v-.27h.28l62.21,0h.24v.24c-.05,19.49-.09,35.77-.12,47.2,0,5.67-.05,10.13-.07,13.2,0,1.5,0,2.66,0,3.46,0,.38,0,.67,0,.89S340.13,123.88,340.13,123.88Z" style="fill:#e0e0e0"></path><path d="M322,78.69a23.36,23.36,0,0,0-23.5-3s-1.16,15.45-1.08,22.18,6.81,7.78,6.81,7.78l0,7.28,16.36.62L323,79.45Z" style="fill:#f5f5f5"></path><path d="M304.24,105.59A15.61,15.61,0,0,0,313,103.1s-2.07,4.84-8.78,4.23Z" style="fill:#e0e0e0"></path><path d="M322.19,86.42c.11,0,4.62-1.36,4.47,3.24s-4.73,3.5-4.73,3.37S322.19,86.42,322.19,86.42Z" style="fill:#f5f5f5"></path><path d="M323.39,91.33s.08.06.21.12a.78.78,0,0,0,.6,0,2,2,0,0,0,1-1.75,2.58,2.58,0,0,0-.19-1.16.92.92,0,0,0-.58-.63.4.4,0,0,0-.48.2c-.06.13,0,.22-.06.23s-.1-.08-.06-.27a.54.54,0,0,1,.19-.28.62.62,0,0,1,.45-.11,1.18,1.18,0,0,1,.82.74,2.71,2.71,0,0,1,.23,1.29,2.08,2.08,0,0,1-1.23,2,.85.85,0,0,1-.73-.14C323.39,91.44,323.37,91.34,323.39,91.33Z" style="fill:#e0e0e0"></path><path d="M300.73,86.08a1,1,0,0,0,.92,1,.92.92,0,0,0,1-.86,1,1,0,0,0-.93-1A.92.92,0,0,0,300.73,86.08Z" style="fill:#e0e0e0"></path><path d="M299.8,85.2c.11.12.84-.42,1.88-.41s1.79.52,1.9.39-.07-.28-.4-.52a2.64,2.64,0,0,0-3,0C299.84,84.91,299.74,85.14,299.8,85.2Z" style="fill:#e0e0e0"></path><path d="M310.89,86.52a1,1,0,0,0,.93,1,.92.92,0,0,0,1-.87,1,1,0,0,0-.93-1A.92.92,0,0,0,310.89,86.52Z" style="fill:#e0e0e0"></path><path d="M310,85.39c.12.13.85-.41,1.88-.41s1.79.52,1.91.39-.07-.28-.4-.52a2.67,2.67,0,0,0-1.53-.47,2.51,2.51,0,0,0-1.49.48C310,85.11,309.9,85.33,310,85.39Z" style="fill:#e0e0e0"></path><path d="M306.21,93.06a6.79,6.79,0,0,0-1.68-.3c-.27,0-.52-.08-.56-.26a1.37,1.37,0,0,1,.18-.79q.36-1,.78-2a33.87,33.87,0,0,0,1.75-5.26,34.22,34.22,0,0,0-2.17,5.11l-.75,2a1.56,1.56,0,0,0-.14,1,.64.64,0,0,0,.44.38,1.53,1.53,0,0,0,.44.07A7,7,0,0,0,306.21,93.06Z" style="fill:#e0e0e0"></path><path d="M309.69,81.34c.1.28,1.14.15,2.35.29s2.19.48,2.36.23-.1-.39-.5-.66a4.13,4.13,0,0,0-3.58-.4C309.87,81,309.65,81.2,309.69,81.34Z" style="fill:#e0e0e0"></path><path d="M300.18,82.2c.18.24.89,0,1.75,0s1.58.16,1.75-.08-.05-.36-.36-.58a2.51,2.51,0,0,0-1.43-.39,2.44,2.44,0,0,0-1.39.48C300.19,81.85,300.1,82.09,300.18,82.2Z" style="fill:#e0e0e0"></path><path d="M295.24,71.48a2.49,2.49,0,0,1,.92-2.22,1.77,1.77,0,0,1,2.28.17,2.07,2.07,0,0,1,1.77-2.49c1.1-.07,2,.76,3.1,1a5,5,0,0,0,3.14-.36c1-.4,1.92-1,2.93-1.32a8.61,8.61,0,0,1,11,5,3.83,3.83,0,0,1,4.05,1.53,6.27,6.27,0,0,1,1,4.42,14,14,0,0,1-.77,3c0,.08,0,.17,0,.25-.07,3.7-.49,8-2.07,8.07-2.75,0-2.1-5.14-2.1-5.14-3.37-1.3-2.12-6.36-3-7.13s-2.61-2.55-9.68,1.06a13.66,13.66,0,0,1-8.39.91l-.17,0h0l-.06,0a6.2,6.2,0,0,1-1.82-.77,3.53,3.53,0,0,1-1.49-1.66,2,2,0,0,1,.39-2.1A4.34,4.34,0,0,1,295.24,71.48Z" style="fill:#e0e0e0"></path><path d="M306.22,98.07a3.4,3.4,0,0,0,1.18-.15,1.69,1.69,0,0,0,.89-.81,1.8,1.8,0,0,0,0-1.46,1.77,1.77,0,0,0-.19-.33c-.09-.09-.07-.09-.17-.07a2.82,2.82,0,0,0-.35.14l-.37.15c-.47.19-.9.36-1.27.49a4.21,4.21,0,0,1-1.2.37,3.85,3.85,0,0,1,1.09-.63l1.24-.57.36-.16c.13-.05.23-.11.4-.17a.54.54,0,0,1,.33,0,.65.65,0,0,1,.25.2,1.94,1.94,0,0,1,.25.42,2.06,2.06,0,0,1-.07,1.77,1.85,1.85,0,0,1-1.13.91,1.69,1.69,0,0,1-1,0C306.31,98.16,306.21,98.09,306.22,98.07Z" style="fill:#e0e0e0"></path><rect x="622.22" y="328.87" width="63.34" height="54.83" style="fill:#e0e0e0"></rect><rect x="606.5" y="328.87" width="53.13" height="54.83" style="fill:#f5f5f5"></rect><path d="M627.44,328.87c.17.13-4.43,6.22-10.27,13.59s-10.7,13.23-10.87,13.1,4.43-6.21,10.27-13.58S627.27,328.74,627.44,328.87Z" style="fill:#ebebeb"></path><path d="M642.6,328.91c.17.13-7.81,11.16-17.84,24.63s-18.29,24.3-18.46,24.17,7.82-11.15,17.84-24.63S642.43,328.79,642.6,328.91Z" style="fill:#ebebeb"></path><path d="M658.22,328.87c.17.13-8.83,12.52-20.11,27.68s-20.56,27.35-20.73,27.23,8.83-12.52,20.11-27.69S658.05,328.74,658.22,328.87Z" style="fill:#ebebeb"></path><path d="M673.28,328.87c.18.12-8.64,12.5-19.69,27.64s-20.15,27.31-20.32,27.19,8.64-12.5,19.7-27.65S673.11,328.74,673.28,328.87Z" style="fill:#ebebeb"></path><path d="M685.19,334.15c.17.13-8,11.37-18.19,25.1S648.36,384,648.19,383.89s8-11.36,18.19-25.1S685,334,685.19,334.15Z" style="fill:#ebebeb"></path><path d="M685.21,356c.16.13-4.61,6.51-10.68,14.25s-11.11,13.9-11.28,13.77,4.61-6.51,10.67-14.25S685,355.83,685.21,356Z" style="fill:#ebebeb"></path><path d="M642.64,329.41a3.08,3.08,0,0,1-.15-.82,17.43,17.43,0,0,1-.12-2.37,20.3,20.3,0,0,1,3.54-11,6.85,6.85,0,0,1,2.24-2.36,1.79,1.79,0,0,1,1.89.19,2.62,2.62,0,0,1,.86,1.69,9.31,9.31,0,0,1-.4,3.64,18.32,18.32,0,0,1-3.49,6.88,17.76,17.76,0,0,1-2.93,2.88,2.69,2.69,0,0,1-2.22.65,4.84,4.84,0,0,1-1.93-1.13l-6.32-5.22c-2-1.66-4.14-3.38-5-5.87a4.6,4.6,0,0,1-.24-1.92,2.18,2.18,0,0,1,2.85-2,5.17,5.17,0,0,1,1.6.71,22,22,0,0,1,4.42,4.17,23.18,23.18,0,0,1,4.09,7.71,20.34,20.34,0,0,1,.55,2.31,3.36,3.36,0,0,1,.09.82c-.07,0-.26-1.11-.92-3a24.73,24.73,0,0,0-4.23-7.45,22.36,22.36,0,0,0-4.34-4c-.84-.52-2-1-2.77-.42s-.8,1.82-.42,2.86c.74,2.2,2.78,3.87,4.8,5.53l6.3,5.18a4.23,4.23,0,0,0,1.62,1,2,2,0,0,0,1.59-.52,16.9,16.9,0,0,0,2.8-2.74,17.61,17.61,0,0,0,3.39-6.58,8.85,8.85,0,0,0,.42-3.35,2.06,2.06,0,0,0-.6-1.29,1.13,1.13,0,0,0-1.21-.11,6.39,6.39,0,0,0-2,2.11,19.66,19.66,0,0,0-1.47,2.43,21.06,21.06,0,0,0-2.26,8.23C642.55,328.27,642.72,329.4,642.64,329.41Z" style="fill:#e0e0e0"></path><polygon points="697.47 476.64 655.6 476.64 588.17 475.86 589.12 381.91 698.42 383.02 697.47 476.64" style="fill:#e0e0e0"></polygon><polygon points="653.76 476.65 562.07 476.04 563.03 381.64 654.72 382.57 653.76 476.65" style="fill:#ebebeb"></polygon><path d="M598.15,381.34c.12.09-7.87,10.15-17.83,22.46S562.19,426,562.07,425.93s7.87-10.15,17.83-22.47S598,381.24,598.15,381.34Z" style="fill:#fafafa"></path><path d="M624.31,381.68c.12.09-13.72,18.5-30.9,41.11s-31.22,40.88-31.34,40.79,13.72-18.5,30.91-41.12S624.19,381.59,624.31,381.68Z" style="fill:#fafafa"></path><path d="M651.27,381.88c.12.09-15.78,21.21-35.51,47.17s-35.83,46.94-36,46.85,15.78-21.21,35.51-47.18S651.15,381.78,651.27,381.88Z" style="fill:#fafafa"></path><path d="M677.26,382.14c.12.09-15.46,21.19-34.79,47.11s-35.11,46.89-35.23,46.8,15.45-21.18,34.79-47.12S677.14,382.05,677.26,382.14Z" style="fill:#fafafa"></path><path d="M697.71,391.47c.12.09-14.27,19.23-32.14,42.75S633.1,476.74,633,476.64s14.27-19.22,32.14-42.75S697.59,391.38,697.71,391.47Z" style="fill:#fafafa"></path><path d="M697.35,429.1c.12.1-8.38,10.91-19,24.15s-19.29,23.91-19.4,23.81,8.37-10.9,19-24.15S697.23,429,697.35,429.1Z" style="fill:#fafafa"></path><path d="M619.36,380.25a3.86,3.86,0,0,1-.62-.51l-1.67-1.56c-1.44-1.37-3.52-3.36-5.91-6A46.88,46.88,0,0,1,604,361.94a28.85,28.85,0,0,1-2.43-7,7.07,7.07,0,0,1,.3-4,4.16,4.16,0,0,1,3.15-2.63,4.5,4.5,0,0,1,3.79,1.56,13.1,13.1,0,0,1,2.26,3.25c1.21,2.26,2.29,4.48,3.22,6.65a91,91,0,0,1,4.17,11.78c.94,3.43,1.51,6.26,1.84,8.21.17,1,.27,1.75.34,2.27a3.62,3.62,0,0,1,.07.79,5.1,5.1,0,0,1-.18-.77c-.11-.57-.26-1.31-.44-2.25-.4-1.94-1-4.74-2-8.15A94.37,94.37,0,0,0,613.82,360c-.94-2.15-2-4.36-3.22-6.6a13,13,0,0,0-2.18-3.12,4,4,0,0,0-3.34-1.41,3.64,3.64,0,0,0-2.72,2.31,6.68,6.68,0,0,0-.28,3.68,28.92,28.92,0,0,0,2.36,6.88,47.84,47.84,0,0,0,7,10.2c2.34,2.66,4.37,4.69,5.76,6.11l1.61,1.63A5.48,5.48,0,0,1,619.36,380.25Z" style="fill:#e0e0e0"></path><path d="M619.74,385.25a4.56,4.56,0,0,1-.14-.86c-.06-.57-.22-1.4-.27-2.49a48.06,48.06,0,0,1,.17-9.21,52.69,52.69,0,0,1,3.29-13.25,48.44,48.44,0,0,1,3.53-7.27c.69-1.22,1.49-2.41,2.31-3.6l1.3-1.77a7.41,7.41,0,0,1,1.62-1.59,3,3,0,0,1,2.26-.67,2.31,2.31,0,0,1,1.76,1.54,11.48,11.48,0,0,1,.17,4.35,43.88,43.88,0,0,1-1.42,8,42.26,42.26,0,0,1-2.53,6.87A43.41,43.41,0,0,1,622.87,378c-.77.77-1.42,1.31-1.86,1.68a6.23,6.23,0,0,1-.68.55,5.26,5.26,0,0,1,.61-.63c.41-.4,1-1,1.78-1.75a45,45,0,0,0,5.66-7.18,42.68,42.68,0,0,0,3-5.55,41.84,41.84,0,0,0,2.45-6.81,43.17,43.17,0,0,0,1.38-7.88,10.81,10.81,0,0,0-.15-4.1,1.77,1.77,0,0,0-1.34-1.21,2.61,2.61,0,0,0-1.86.58,13.8,13.8,0,0,0-2.79,3.23c-.81,1.18-1.61,2.35-2.29,3.56a49.17,49.17,0,0,0-3.53,7.19,54,54,0,0,0-3.37,13.11,52.08,52.08,0,0,0-.34,9.15c0,1.08.14,1.92.17,2.49A4.76,4.76,0,0,1,619.74,385.25Z" style="fill:#e0e0e0"></path><path d="M696.77,428.73c0,.15-29.86.39-66.7.53s-66.71.15-66.71,0,29.86-.39,66.71-.54S696.77,428.58,696.77,428.73Z" style="fill:#e0e0e0"></path><path d="M609.68,474.51c-.15,0-.27-20.82-.27-46.5s.12-46.5.27-46.5.27,20.82.27,46.5S609.83,474.51,609.68,474.51Z" style="fill:#e0e0e0"></path></g><g id="freepik--speech-bubbles--inject-7"><circle cx="109.17" cy="213.43" r="40.08" transform="translate(-124.83 265.57) rotate(-75.47)" style="fill:#fff"></circle><path d="M151.56,242.47s-.43.07-1.15.36a5.32,5.32,0,0,0-2.42,2.08,5,5,0,0,0-.75,2.07,4.33,4.33,0,0,0,.44,2.46,4.8,4.8,0,0,0,9-.54,4.36,4.36,0,0,0,.14-2.49,4.91,4.91,0,0,0-1-2,5.25,5.25,0,0,0-2.65-1.78,11.83,11.83,0,0,0-1.18-.22s.11,0,.31,0a1.81,1.81,0,0,1,.39,0,3,3,0,0,1,.52.09,5.24,5.24,0,0,1,2.82,1.75,5.12,5.12,0,0,1,1.08,2.06A4.66,4.66,0,0,1,157,249a5.41,5.41,0,0,1-1.68,2.43,4.84,4.84,0,0,1-6,.36,5.44,5.44,0,0,1-1.95-2.22,4.72,4.72,0,0,1-.44-2.65,5.06,5.06,0,0,1,.84-2.17,5.32,5.32,0,0,1,2.59-2.08,3,3,0,0,1,.5-.14,2.41,2.41,0,0,1,.38-.07A1.11,1.11,0,0,1,151.56,242.47Z" style="fill:#263238"></path><path d="M164.27,255.1s-.27.06-.72.26a3.29,3.29,0,0,0-1.49,1.31,2.81,2.81,0,0,0-.18,2.79,3,3,0,0,0,5.54-.33,2.84,2.84,0,0,0-.51-2.75,3.35,3.35,0,0,0-1.64-1.13c-.46-.13-.74-.13-.73-.16a1.42,1.42,0,0,1,.77,0,3.34,3.34,0,0,1,1.81,1.1,3.47,3.47,0,0,1,.7,1.32,3.08,3.08,0,0,1-.07,1.72,3.29,3.29,0,0,1-6.18.36,2.93,2.93,0,0,1-.27-1.7,3.19,3.19,0,0,1,.54-1.39,3.27,3.27,0,0,1,1.66-1.3A1.68,1.68,0,0,1,164.27,255.1Z" style="fill:#263238"></path><path d="M149.45,216.58s0-.22,0-.66,0-1.08,0-1.92q0-.63,0-1.41c0-.52-.08-1.09-.12-1.7s-.1-1.28-.15-2a7,7,0,0,0-.15-1.08c-.07-.38-.13-.76-.21-1.15a38.33,38.33,0,0,0-3.61-11A40.18,40.18,0,0,0,136,183.45L134.33,182c-.58-.45-1.19-.86-1.8-1.3l-.91-.66a8.69,8.69,0,0,0-1-.63l-2-1.16c-.34-.19-.67-.4-1-.58l-1.08-.5-2.19-1c-.75-.31-1.53-.54-2.31-.81l-1.18-.4c-.2-.07-.39-.15-.59-.2l-.61-.14a37.29,37.29,0,0,0-5-1c-.86-.09-1.72-.25-2.6-.3l-2.66-.07c-.45,0-.9,0-1.35,0l-1.35.1c-.91.08-1.82.11-2.73.23a42.26,42.26,0,0,0-5.47,1.15l-1.37.38c-.22.07-.46.12-.68.2l-.67.26-2.68,1c-.89.39-1.74.86-2.62,1.29-.43.23-.88.42-1.3.69l-1.24.79a45.17,45.17,0,0,0-4.85,3.51L80.87,185l-.56.52-.51.58-1,1.15-1,1.16-.91,1.26L76,190.92l-.45.64c-.14.22-.27.44-.4.67L73.52,195l-1.32,2.88a39.84,39.84,0,0,0-2,25.28c.28,1,.57,2,.85,3s.76,2,1.14,2.94l.29.72.35.7.7,1.39.71,1.38.82,1.31.82,1.3.42.64.46.61,1.87,2.4a45.63,45.63,0,0,0,4.24,4.22l1.11,1c.37.33.79.59,1.18.88.8.56,1.57,1.16,2.38,1.69l2.49,1.45.62.36c.21.11.43.2.65.3l1.29.59a41.36,41.36,0,0,0,5.22,2c.88.26,1.78.44,2.66.65l1.32.31c.44.09.89.13,1.34.19l2.64.35c.87.08,1.75.06,2.62.1a39.22,39.22,0,0,0,5.11-.19l.63-.05c.21,0,.41-.07.62-.1L116,253c.81-.15,1.63-.25,2.41-.44l2.32-.65,1.15-.32,1.1-.42,2.15-.84a7,7,0,0,0,1-.47l1-.51c.66-.34,1.33-.65,2-1l1.84-1.15a40.05,40.05,0,0,0,11.08-10.6c.33-.46.67-.9,1-1.36s.55-.93.81-1.39l.79-1.34c.12-.22.26-.43.37-.66l.31-.67,1.17-2.53c.35-.82.58-1.64.85-2.39.14-.38.26-.74.39-1.1a7,7,0,0,0,.31-1.05c.16-.69.32-1.34.46-1.94s.29-1.15.38-1.66.14-1,.19-1.4c.12-.83.21-1.47.27-1.9s.1-.65.1-.65,0,.22-.07.65-.12,1.08-.22,1.91q-.07.63-.18,1.41c-.08.51-.23,1.06-.36,1.67l-.45,1.94a6.27,6.27,0,0,1-.3,1.06l-.38,1.11c-.27.75-.5,1.58-.84,2.4s-.76,1.66-1.16,2.55l-.31.68c-.11.22-.24.43-.37.66L144,234l-.81,1.4c-.31.46-.65.91-1,1.37a40.17,40.17,0,0,1-11.11,10.7l-1.84,1.17c-.64.36-1.32.67-2,1l-1,.51a7,7,0,0,1-1,.48l-2.18.85-1.1.43-1.15.32-2.34.66c-.79.19-1.61.3-2.43.46l-1.23.21-.62.11-.63,0a36.74,36.74,0,0,1-5.16.21c-.87,0-1.76,0-2.64-.1l-2.66-.34c-.45-.07-.9-.1-1.35-.19l-1.33-.31c-.89-.22-1.79-.4-2.69-.65a42.63,42.63,0,0,1-5.26-2l-1.31-.59c-.22-.1-.44-.19-.65-.3l-.62-.37-2.52-1.46c-.82-.53-1.6-1.13-2.4-1.69-.4-.3-.82-.56-1.19-.89l-1.12-1a45.37,45.37,0,0,1-4.29-4.26l-1.88-2.42-.47-.61-.42-.65-.83-1.31L74,233.48l-.71-1.4-.71-1.4-.36-.7-.29-.74c-.38-1-.77-2-1.15-3l-.87-3.08a40.09,40.09,0,0,1,2-25.51c.44-1,.89-1.95,1.33-2.91l1.6-2.75.4-.68.46-.64.92-1.27.92-1.27,1-1.17,1-1.16c.17-.2.33-.39.51-.58l.56-.53,2.23-2.1a45.05,45.05,0,0,1,4.9-3.54L89,178.3c.41-.27.87-.46,1.31-.69.88-.44,1.74-.91,2.63-1.31l2.71-1.05.68-.26c.23-.08.46-.13.69-.2l1.38-.38a42.89,42.89,0,0,1,5.51-1.16c.92-.11,1.85-.14,2.76-.22l1.36-.1c.45,0,.91,0,1.36,0l2.68.07c.89.06,1.76.22,2.63.32a38.06,38.06,0,0,1,5.06,1l.61.14.6.2,1.19.41c.78.28,1.57.51,2.32.83l2.21,1,1.09.5c.35.19.68.39,1,.59l2,1.17a6.87,6.87,0,0,1,1,.64l.92.66c.61.45,1.23.87,1.81,1.32l1.64,1.44a40.26,40.26,0,0,1,9.32,12.29,38.3,38.3,0,0,1,3.57,11.1c.07.4.13.78.2,1.16a6.89,6.89,0,0,1,.13,1.09c0,.71.1,1.37.14,2s.1,1.19.11,1.71,0,1-.05,1.41c0,.84-.06,1.48-.07,1.93S149.45,216.58,149.45,216.58Z" style="fill:#263238"></path><path d="M98.39,205h5.74a4.88,4.88,0,0,1,5-4.91,4.64,4.64,0,0,1,4.5,3,5.11,5.11,0,0,1-.41,4.65c-1,1.61-3.1,3.07-7,2.39v13h5.68v-7.59a11.1,11.1,0,0,0,8-10.84c0-8.39-7.53-10.34-10.76-10.34C106.68,194.28,98.28,194.87,98.39,205Z" style="fill:#ffe75e"></path><rect x="106.24" y="225.71" width="5.76" height="5.38" style="fill:#ffe75e"></rect><path d="M403.55,195.7,392.71,177a39.68,39.68,0,1,0-12.4,12.62Z" style="fill:#fff"></path><path d="M403.55,195.7l-23.67-5.81.17,0A39.33,39.33,0,0,1,359.62,196,43,43,0,0,1,347,194.14a39.15,39.15,0,0,1-12.34-6.54,39.64,39.64,0,0,1-14.93-26.39,39.14,39.14,0,0,1,10.17-31.6,41.74,41.74,0,0,1,6.85-6c1.28-.79,2.55-1.61,3.86-2.3l2-1,1-.48,1-.39a40,40,0,0,1,17-2.59,39.38,39.38,0,0,1,34.74,26.53,40.73,40.73,0,0,1,2.19,12.78,39.23,39.23,0,0,1-5.67,20.5v-.21l10.64,19.2-11-19-.06-.11.06-.1A39,39,0,0,0,398,156.21a40.41,40.41,0,0,0-2.22-12.58A38.88,38.88,0,0,0,377.08,122a39.16,39.16,0,0,0-32.16-1.75l-1,.37-1,.48-2,1c-1.29.68-2.53,1.49-3.78,2.26a38.72,38.72,0,0,0-16.72,36.84A39,39,0,0,0,335,187.05a38.59,38.59,0,0,0,12.11,6.47,42.42,42.42,0,0,0,12.46,1.88,39,39,0,0,0,20.21-5.92l.08,0,.09,0Z" style="fill:#263238"></path><path d="M355.74,138.84,357,158.61a3.2,3.2,0,0,0,3,3h0a3.21,3.21,0,0,0,3.38-2.85l2.2-19.87a2.53,2.53,0,0,0-2.54-2.8l-4.83.07A2.51,2.51,0,0,0,355.74,138.84Z" style="fill:#ffe75e"></path><path d="M365.24,172.73a4.83,4.83,0,1,1-3.06-6.1A4.82,4.82,0,0,1,365.24,172.73Z" style="fill:#ffe75e"></path></g><g id="freepik--character-2--inject-7"><path d="M406.1,389.66S372,423.13,369.62,429s-7.87,22.42-7.29,28.27,3.89,17.15,10.79,19.19c1.26.38,24.19.28,32.91.28,6.64,0,8.05-1.79,15.92-7.49l6.86-5s1.44,12.53,7.55,12.32c3.59-.12,31.89,0,38.82,0h.22a21.17,21.17,0,0,0,18.66-11.12l12.73-23.57A52.23,52.23,0,0,0,510.45,418l-1.36-16.72Z" style="fill:#263238"></path><path d="M469,419.49a3,3,0,0,1-.69.14l-2,.3c-1.72.28-4.22.63-7.25,1.35A35,35,0,0,0,449,425.19a23.06,23.06,0,0,0-5,4,32.59,32.59,0,0,0-4,5.55c-1.2,2-2.23,4.11-3.2,6.13s-1.91,4-2.76,5.85A61.46,61.46,0,0,0,430.28,457a32.57,32.57,0,0,0-1,7.26c-.05,1.74.06,2.7,0,2.71a3.6,3.6,0,0,1-.1-.7,17.16,17.16,0,0,1-.13-2,29.48,29.48,0,0,1,.82-7.36,57.39,57.39,0,0,1,3.64-10.36c.84-1.89,1.76-3.85,2.73-5.88s2-4.12,3.22-6.18a32.5,32.5,0,0,1,4.13-5.64,23.33,23.33,0,0,1,5.1-4.08A34.31,34.31,0,0,1,459,420.86a69.63,69.63,0,0,1,7.31-1.16c.87-.1,1.54-.16,2-.19A3.37,3.37,0,0,1,469,419.49Z" style="fill:#455a64"></path><path d="M436.6,435.26c-.11,0-.13-1.68-.51-4.36a38.74,38.74,0,0,0-8.41-19c-1.72-2.09-3-3.23-2.89-3.31a4.5,4.5,0,0,1,.94.73,26.2,26.2,0,0,1,2.27,2.3,34.93,34.93,0,0,1,5.75,9,35.44,35.44,0,0,1,2.77,10.29,24.42,24.42,0,0,1,.16,3.23A4.44,4.44,0,0,1,436.6,435.26Z" style="fill:#455a64"></path><path d="M390.25,447.29s.27.21.67.67a22.5,22.5,0,0,1,1.55,2.05,30.6,30.6,0,0,1,5.14,16,21.3,21.3,0,0,1-.06,2.57,3.08,3.08,0,0,1-.15.94c-.1,0,0-1.34-.22-3.48a35.29,35.29,0,0,0-5.08-15.79C391,448.41,390.17,447.35,390.25,447.29Z" style="fill:#455a64"></path><path d="M502.75,164.57c2.34-2.4,1.15-6.75-1.56-8.73s-6.28-2.18-9.63-2.12a9.57,9.57,0,0,0-16.91-6.65c1.08-1.35.11-3.53-1.46-4.26s-3.4-.42-5.08,0a11,11,0,0,1-5.1.49c-1.56-.38-2.83-1.47-4.21-2.29a13.11,13.11,0,0,0-19.72,12.88,11.29,11.29,0,0,0-13.92,12.76,8.31,8.31,0,0,0-3.05,14,4.81,4.81,0,1,0,.29,9.62c-.89,8,5.69,17.6,6.74,16.73L495,202.24c3.62.35,7.59-15.74,9.05-19.08.88-2,1.77-4,2.65-6.07a14.23,14.23,0,0,0,1.59-5.58A7.32,7.32,0,0,0,502.75,164.57Z" style="fill:#263238"></path><path d="M497.23,185.1c-.22-11.7-12.29-23.91-24-23.19l-38,5.52-.15,6.29L434,251.6h0s2.15,25.23,23.38,24.72c19.07-.45,18.9-20.59,18.9-20.6l.09-11s15-1.83,19-21.15C497.27,214,497.48,198.11,497.23,185.1Z" style="fill:#ffbe9d"></path><path d="M489.4,200.54a2.49,2.49,0,0,1-2.52,2.41,2.38,2.38,0,0,1-2.47-2.36,2.49,2.49,0,0,1,2.51-2.41A2.39,2.39,0,0,1,489.4,200.54Z" style="fill:#263238"></path><path d="M493.38,193.93c-.32.31-2.15-1.17-4.84-1.28s-4.71,1.14-5,.8c-.13-.15.21-.72,1.09-1.31a6.81,6.81,0,0,1,4-1,6.53,6.53,0,0,1,3.84,1.43C493.29,193.19,493.54,193.79,493.38,193.93Z" style="fill:#263238"></path><path d="M465,200.54a2.49,2.49,0,0,1-2.52,2.41,2.38,2.38,0,0,1-2.47-2.36,2.49,2.49,0,0,1,2.51-2.41A2.39,2.39,0,0,1,465,200.54Z" style="fill:#263238"></path><path d="M467.36,193.65c-.32.31-2.15-1.17-4.84-1.28s-4.71,1.14-5,.8c-.13-.15.2-.72,1.09-1.31a6.81,6.81,0,0,1,4-1.05,6.53,6.53,0,0,1,3.84,1.43C467.26,192.91,467.52,193.51,467.36,193.65Z" style="fill:#263238"></path><path d="M476.75,214.53a20.92,20.92,0,0,1,4.4-.5c.69,0,1.34-.13,1.48-.52a2.57,2.57,0,0,0-.37-1.74l-1.8-4.5c-2.49-6.4-4.26-11.65-3.95-11.74s2.57,5,5.06,11.44c.59,1.58,1.17,3.09,1.71,4.53a2.89,2.89,0,0,1,.24,2.29,1.72,1.72,0,0,1-1.17.81,5.72,5.72,0,0,1-1.18.09A20.85,20.85,0,0,1,476.75,214.53Z" style="fill:#263238"></path><path d="M476.35,244.76a49.59,49.59,0,0,1-25.76-8.09s6.16,13.76,25.72,12.8Z" style="fill:#eb996e"></path><path d="M468.27,188.23c-.4.92-3,.08-6.18.14s-5.89.82-6.18-.1c-.12-.44.45-1.28,1.6-2.07a8.82,8.82,0,0,1,4.79-1.44,7.85,7.85,0,0,1,4.62,1.41C468,187,468.45,187.79,468.27,188.23Z" style="fill:#263238"></path><path d="M493.47,187.38c-.5,1-3,.34-5.9.66s-5.24,1.28-5.92.42c-.3-.43,0-1.37.93-2.34a7.47,7.47,0,0,1,4.6-2.07,7.6,7.6,0,0,1,4.92,1.2C493.23,186,493.68,186.91,493.47,187.38Z" style="fill:#263238"></path><path d="M435.8,196.47c-.36-.16-14.75-4.49-14.4,10.23s15.06,11.33,15.07,10.91S435.8,196.47,435.8,196.47Z" style="fill:#ffbe9d"></path><path d="M433.14,212.15c-.07-.05-.25.18-.68.39a2.58,2.58,0,0,1-1.92.09c-1.57-.54-2.94-3-3.07-5.63a8.42,8.42,0,0,1,.63-3.68,3,3,0,0,1,1.88-2,1.3,1.3,0,0,1,1.53.67c.21.4.12.7.2.72s.31-.25.18-.86a1.63,1.63,0,0,0-.6-.9,1.91,1.91,0,0,0-1.43-.34,3.58,3.58,0,0,0-2.62,2.34,8.78,8.78,0,0,0-.8,4.13c.17,3,1.75,5.7,3.9,6.26a2.71,2.71,0,0,0,2.33-.44C433.12,212.5,433.19,212.17,433.14,212.15Z" style="fill:#eb996e"></path><path d="M497.7,170c-2.15-4.19-6.48-6.93-11-8.23s-9.32-1.33-14-1.36L432.46,163l-2,31.81,3.33,5.26,3,3.3c4-1.21,8.4-6.24,8.9-12.45a13.61,13.61,0,0,0,10-6.79,18,18,0,0,0,1.91-12.1,13.43,13.43,0,0,0,7.16,7.72,8.72,8.72,0,0,0,4.19.83c4.08-.35,7-5.37,5.23-9.07A28,28,0,0,0,486.78,181c3,1.13,6.69,1.64,9.33-.25C499.3,178.44,499.5,173.53,497.7,170Z" style="fill:#263238"></path><path d="M477.56,217.78c-1.45-.87-5.12-1-6.74-.52s-1.11,1.59-1.55,3.22a4.28,4.28,0,0,0,1.52,4.5,6.92,6.92,0,0,0,2.42,1,3,3,0,0,0,1.41.11,2.77,2.77,0,0,0,1.62-1.6,12.94,12.94,0,0,0,1.43-6.32Z" style="fill:#eb996e"></path><path d="M475.37,225.7s-.21.21-.72.38a3.68,3.68,0,0,1-2.23-.09,4.89,4.89,0,0,1-2.52-2.14,7,7,0,0,1-.82-4,6,6,0,0,1,.48-2.08,2,2,0,0,1,1.64-1.23,13.32,13.32,0,0,1,1.77.12c.54.06,1,.13,1.5.2a10,10,0,0,1,2.89.77c0,.08-1.13-.2-2.94-.4l-1.49-.14a13.41,13.41,0,0,0-1.68-.07,1.49,1.49,0,0,0-1.23,1,5.4,5.4,0,0,0-.42,1.89,6.84,6.84,0,0,0,.71,3.69,4.68,4.68,0,0,0,2.25,2,3.63,3.63,0,0,0,2,.24C475.09,225.79,475.35,225.66,475.37,225.7Z" style="fill:#263238"></path><path d="M544.44,258.73c-1.46-3.52-4.07-7.18-7.88-7.45-2.94-.2-5.62,1.75-7.54,4-5.61,6.58-6.87,15.85-6.38,24.49.19,3.39.68,6.95,2.76,9.63l2.84,3.95c3,2.23,7.51,1.74,10.61-.41s5-5.64,6.29-9.2A35.48,35.48,0,0,0,544.44,258.73Z" style="fill:#B5B5B5"></path><g style="opacity:0.30000000000000004"><path d="M544.44,258.73c-1.46-3.52-4.07-7.18-7.88-7.45-2.94-.2-5.62,1.75-7.54,4-5.61,6.58-6.87,15.85-6.38,24.49.19,3.39.68,6.95,2.76,9.63l2.84,3.95c3,2.23,7.51,1.74,10.61-.41s5-5.64,6.29-9.2A35.48,35.48,0,0,0,544.44,258.73Z"></path></g><path d="M395.16,262.37c-.5-3.32-1.28-7-4-9-3.66-2.69-8.94-1-12.64,1.66-6.76,4.83-11.47,12.86-11.19,21.17s6.15,16.44,14.26,18.29l3.75-.29c5.35-2.63,8.76-8.26,10-14.09S396.05,268.26,395.16,262.37Z" style="fill:#B5B5B5"></path><g style="opacity:0.30000000000000004"><path d="M395.16,262.37c-.5-3.32-1.28-7-4-9-3.66-2.69-8.94-1-12.64,1.66-6.76,4.83-11.47,12.86-11.19,21.17s6.15,16.44,14.26,18.29l3.75-.29c5.35-2.63,8.76-8.26,10-14.09S396.05,268.26,395.16,262.37Z"></path></g><path d="M434,248.17l-6.6,1.12-34.34,3-5.88,7.83L387,283.57a11.59,11.59,0,0,1-3.78,8.67,7.19,7.19,0,0,1-3.35,1.8l20.6,4.9s5.59,24.18,5.59,27.92-5.14,53.9-4.4,68.45c29.21,12.94,67.76,14.13,108.77,10.24L511,293.34l19.56,1.19c-1.72,0-12-16.8-.15-42.62h0l-54.1-2.44s-6.71,9.56-21.81,9.46C436.29,258.81,434,248.17,434,248.17Z" style="fill:#D5D5D5"></path><path d="M405.06,294.86a9.69,9.69,0,0,1,.19-1.59c.08-.51.17-1.13.24-1.86s.19-1.55.23-2.47a53.87,53.87,0,0,0,.08-6.46,56.87,56.87,0,0,0-1-7.84,59.59,59.59,0,0,0-2.11-7.61,54.84,54.84,0,0,0-2.54-5.93c-.39-.83-.82-1.55-1.16-2.19s-.67-1.19-.94-1.63a9.36,9.36,0,0,1-.78-1.4,9,9,0,0,1,.95,1.29c.3.42.65.95,1,1.59s.82,1.34,1.23,2.17a48.77,48.77,0,0,1,2.67,5.94,53.31,53.31,0,0,1,2.17,7.67,54.55,54.55,0,0,1,.93,7.92,49,49,0,0,1-.19,6.51c-.06.92-.21,1.75-.31,2.48s-.22,1.35-.33,1.85A8.77,8.77,0,0,1,405.06,294.86Z" style="fill:#AFE96C"></path><path d="M483.72,317.6a3.17,3.17,0,0,1-.14.69l-.51,1.92c-.22.84-.5,1.87-.9,3s-.78,2.52-1.35,4-1.13,3.05-1.87,4.72-1.54,3.44-2.42,5.29a103.33,103.33,0,0,1-14.79,22.14c-1.38,1.52-2.66,3-4,4.26s-2.49,2.48-3.63,3.53-2.21,2-3.14,2.77-1.76,1.47-2.46,2L447,373.11a4,4,0,0,1-.58.39,4.36,4.36,0,0,1,.51-.48l1.53-1.28c.67-.54,1.48-1.22,2.39-2.05s2-1.72,3.07-2.81,2.34-2.24,3.58-3.57,2.56-2.75,3.92-4.28a117.26,117.26,0,0,0,8-10.56A120.16,120.16,0,0,0,476.1,337c.88-1.84,1.76-3.58,2.45-5.26s1.37-3.23,1.92-4.67,1-2.76,1.42-3.92.74-2.16,1-3,.44-1.42.6-1.9A3.35,3.35,0,0,1,483.72,317.6Z" style="fill:#263238"></path><path d="M501.22,264.86a4.36,4.36,0,0,1,.15.81c.08.59.18,1.38.32,2.37s.29,2.28.4,3.75.31,3.13.38,5,.21,3.88.22,6.06,0,4.5-.05,6.95c-.18,4.9-.58,10.28-1.34,15.88s-1.87,10.89-3,15.65c-.62,2.37-1.19,4.62-1.85,6.7s-1.25,4-1.85,5.77-1.21,3.32-1.72,4.69-1,2.55-1.42,3.5l-.95,2.19a7.82,7.82,0,0,1-.36.75,3.82,3.82,0,0,1,.27-.79c.21-.56.49-1.3.85-2.23s.85-2.13,1.33-3.52,1.1-2.94,1.65-4.71,1.21-3.68,1.79-5.77,1.19-4.33,1.8-6.7c1.13-4.75,2.19-10,3-15.6s1.18-10.94,1.38-15.82c.06-2.44.14-4.77.09-6.94s-.07-4.19-.15-6-.2-3.51-.3-5-.21-2.72-.32-3.75-.16-1.78-.22-2.37A5.18,5.18,0,0,1,501.22,264.86Z" style="fill:#263238"></path><path d="M509.27,259.86c.09,0-.56,1.69-1.22,4.48a42,42,0,0,0-.86,5,44.86,44.86,0,0,0-.23,6.15,45.86,45.86,0,0,0,.7,6.11,44.43,44.43,0,0,0,1.24,4.87c.88,2.73,1.66,4.34,1.57,4.38a6.22,6.22,0,0,1-.6-1.1,28.22,28.22,0,0,1-1.32-3.16,38,38,0,0,1-1.36-4.9,42,42,0,0,1-.75-6.18,42.76,42.76,0,0,1,.27-6.23,36.75,36.75,0,0,1,1-5,29,29,0,0,1,1.06-3.25A6.17,6.17,0,0,1,509.27,259.86Z" style="fill:#AFE96C"></path><path d="M525.1,280.8s29.81,2.88,35.92,0a19.53,19.53,0,0,0,8.07-28.62c-3.67-5.24-56.34-41.35-56.34-41.35s-2.66-3-2.66-5.32V188.24l-18.94-25.92s-3.8-.15,0,6.31c0,0-3.51.39-.59,6.34a26.66,26.66,0,0,0,6.24,8.61l.66,8.64s-3,17.61-3,18.61,2.33,7,2.33,7l33.61,34.1s-5.35,7.83-5.62,23.42C524.76,277.06,525,278.89,525.1,280.8Z" style="fill:#ffbe9d"></path><path d="M505.54,189.06c-.07,0-.68-1.23-1.76-3.21a75.88,75.88,0,0,0-10.1-14.38c-1.49-1.68-2.47-2.69-2.41-2.74a3.41,3.41,0,0,1,.76.62c.48.42,1.14,1.06,1.92,1.87a58.41,58.41,0,0,1,5.62,6.85,59.38,59.38,0,0,1,4.53,7.61c.5,1,.88,1.85,1.12,2.44A3.57,3.57,0,0,1,505.54,189.06Z" style="fill:#eb996e"></path><path d="M545,263.68a11.57,11.57,0,0,1-2.49-1.22,42.25,42.25,0,0,1-5.5-3.81,49,49,0,0,1-4.85-4.6,12.21,12.21,0,0,1-1.75-2.14,16.48,16.48,0,0,1,2,1.88c1.22,1.19,2.92,2.81,4.92,4.45a61.71,61.71,0,0,0,5.36,3.9A20.68,20.68,0,0,1,545,263.68Z" style="fill:#eb996e"></path><path d="M387,284.18s-27.11-2.29-31.2-9-7.77-16.49-1.08-23.92,57.54-37.12,57.54-37.12l12.21,12.65a202.86,202.86,0,0,1-15.09,14.79A145.33,145.33,0,0,1,391.12,255l-4,5.55Z" style="fill:#ffbe9d"></path><path d="M412.28,214.17s4.46-3.59,5.18-7.68,1-16.13,1-16.13l9.87-16.61,10.83-9.63s1.16-1.44,1.18,3.13c0,0,2.68,2.17-1.42,6.5a29.94,29.94,0,0,1-1.68,4.58c-1,1.92-5.3,10.71-5.3,10.71l.24,5.17s1.93,13.24,1,17.58-8.62,15-8.62,15Z" style="fill:#ffbe9d"></path><path d="M389.7,256.68a9.66,9.66,0,0,1-1.36,2.25,35.79,35.79,0,0,1-9.06,8.81A10.23,10.23,0,0,1,377,269a19,19,0,0,1,2.07-1.6,47.6,47.6,0,0,0,9-8.73A19,19,0,0,1,389.7,256.68Z" style="fill:#eb996e"></path><path d="M438.66,174.44a1.1,1.1,0,0,0-.8-.3c-.58,0-1.16.67-1.88,1.46a69.94,69.94,0,0,0-9.78,13.47,33.07,33.07,0,0,1-1.71,3,3.42,3.42,0,0,1,.31-.88c.23-.55.59-1.35,1.08-2.3a54,54,0,0,1,4.39-7.16,52.74,52.74,0,0,1,5.45-6.39,13.8,13.8,0,0,1,1.06-1,1.65,1.65,0,0,1,1.08-.4C438.55,174,438.7,174.45,438.66,174.44Z" style="fill:#eb996e"></path><path d="M422.67,188.19a4.76,4.76,0,0,1,.38-1c.27-.64.72-1.55,1.32-2.64a44.92,44.92,0,0,1,5.59-8,56.69,56.69,0,0,1,7-6.73c1-.78,1.78-1.38,2.36-1.78a4.08,4.08,0,0,1,.91-.57c.05.06-1.16,1-3,2.63a71.3,71.3,0,0,0-6.89,6.79,54.42,54.42,0,0,0-5.66,7.82C423.42,186.84,422.75,188.22,422.67,188.19Z" style="fill:#eb996e"></path><path d="M431.9,189a5.92,5.92,0,0,1,.2,1.32c.1.86.22,2.1.35,3.63.27,3.06.6,7.3.88,12,.07,1.17.14,2.32.18,3.43a7.93,7.93,0,0,1-.05,1.68,9.68,9.68,0,0,1-.51,1.52c-.81,1.89-1.69,3.5-2.43,4.85s-1.38,2.42-1.83,3.15a6.43,6.43,0,0,1-.75,1.11,6.85,6.85,0,0,1,.58-1.21l1.68-3.23c.7-1.36,1.54-3,2.31-4.85A10.48,10.48,0,0,0,433,211a8,8,0,0,0,0-1.56c-.06-1.11-.12-2.25-.19-3.42-.28-4.63-.53-8.81-.73-12-.07-1.46-.13-2.68-.18-3.64A7.68,7.68,0,0,1,431.9,189Z" style="fill:#eb996e"></path><path d="M490.21,169.27a9.78,9.78,0,0,0-.43,1.93,9.25,9.25,0,0,0,1.4,5.09c1.11,2,3.09,3.92,4.6,6.62a16.61,16.61,0,0,1,1.5,9.77,92.9,92.9,0,0,1-2,9.69,27.31,27.31,0,0,0-.8,7.94,14.33,14.33,0,0,0,1.27,5.2c.54,1.16,1,1.72.94,1.75a2,2,0,0,1-.34-.39,10.34,10.34,0,0,1-.79-1.27,13.86,13.86,0,0,1-1.45-5.26,26.74,26.74,0,0,1,.7-8.07c.62-3,1.58-6.19,2-9.65a16.3,16.3,0,0,0-1.4-9.48c-1.44-2.62-3.4-4.61-4.5-6.67a9,9,0,0,1-1.28-5.29,5.57,5.57,0,0,1,.38-1.45A2.8,2.8,0,0,1,490.21,169.27Z" style="fill:#eb996e"></path><path d="M474.09,255.76s-.1.13-.33.36-.57.55-1.05.93a24.9,24.9,0,0,1-4.28,2.87,27.68,27.68,0,0,1-31.84-3.78,25.26,25.26,0,0,1-3.49-3.79c-.38-.48-.62-.89-.8-1.15s-.26-.42-.24-.43.43.52,1.19,1.46a30.16,30.16,0,0,0,3.58,3.63,28.6,28.6,0,0,0,35.76,1C473.55,256.16,474.06,255.73,474.09,255.76Z" style="fill:#263238"></path><path d="M504.62,264.36c.08,0,.2,1.53.48,4s.75,5.86,1.52,9.57,1.68,7,2.41,9.38,1.22,3.83,1.15,3.86a4.17,4.17,0,0,1-.47-1c-.27-.64-.62-1.59-1-2.77a75.87,75.87,0,0,1-2.57-9.39,78.49,78.49,0,0,1-1.38-9.63c-.09-1.24-.14-2.25-.15-2.95A4,4,0,0,1,504.62,264.36Z" style="fill:#263238"></path><path d="M405.51,268a5.47,5.47,0,0,1,.3,1.14c.18.73.36,1.81.54,3.15a49.84,49.84,0,0,1-1.77,20.93c-.4,1.29-.77,2.32-1.06,3a5.25,5.25,0,0,1-.49,1.06c-.09,0,.49-1.59,1.2-4.19a58.78,58.78,0,0,0,1.83-10.31,59.47,59.47,0,0,0-.07-10.47C405.72,269.61,405.42,268,405.51,268Z" style="fill:#263238"></path></g><g id="freepik--character-1--inject-7"><path d="M193.26,243.09q-.24,15.79-.47,31.61c-.06,4.06-.19,8.38-2.42,11.78s-6.42,5.41-8.94,8.75a12.53,12.53,0,0,0,.18,14.87c-4.31,2.6-5.43,8.79-3.41,13.39s6.45,7.76,11.12,9.64c15.59,6.3,33.48.53,50,3.57,5.71,1.05,11.63,3.14,17.16,1.36a12.86,12.86,0,0,0,5.61-3.61c3.57-3.94,4.36-9.58,5-14.86q1.35-11.32,2.69-22.64c1-8.93,2.11-17.89,2.11-26.88a114,114,0,0,0-8.27-42.46" style="fill:#263238"></path><path d="M201.73,256.31s-3.94-26.3,12.86-37c16.44-10.51,34.06-7.32,40.54.48,12.51,15.06,9.88,26,9.88,26l-59.48,16Z" style="fill:#263238"></path><path d="M264.93,245.13c0-.15,0-.3,0-.45a27.82,27.82,0,0,0-28.72-26.74c-.74,0-1.49.08-2.26.14a32.86,32.86,0,0,0-3.56.48c-13.18,2.5-22.4,14.5-22.15,27.91.21,10.91.6,25.45,1.24,29.75a58.31,58.31,0,0,1,.95,9.73l.51,16.73A18.43,18.43,0,0,0,229,320.53h0A18.43,18.43,0,0,0,247.75,302l-.05-8.63c11.35-1.55,16.51-12.55,17.17-25.67C265.22,260.73,265.53,260.19,264.93,245.13Z" style="fill:#ffbe9d"></path><path d="M209,255.86c-.3-.13-12.23-3.62-11.85,8.55s12.53,9.28,12.54,8.93S209,255.86,209,255.86Z" style="fill:#ffbe9d"></path><path d="M205.86,268.84c-.05,0-.2.16-.56.33a2.15,2.15,0,0,1-1.58.09c-1.3-.44-2.45-2.44-2.58-4.64a7.18,7.18,0,0,1,.5-3.05,2.48,2.48,0,0,1,1.55-1.68,1.09,1.09,0,0,1,1.27.54c.17.34.1.58.17.6s.25-.21.14-.71a1.37,1.37,0,0,0-.51-.75,1.65,1.65,0,0,0-1.18-.27,3,3,0,0,0-2.15,2,7,7,0,0,0-.63,3.41c.15,2.45,1.48,4.71,3.26,5.16a2.24,2.24,0,0,0,1.92-.38C205.85,269.14,205.91,268.86,205.86,268.84Z" style="fill:#eb996e"></path><path d="M259,251.69c-.33.34-2.34-1.14-5.19-1.14s-5,1.43-5.25,1.08c-.16-.15.18-.77,1.09-1.44a7.28,7.28,0,0,1,4.21-1.29,7,7,0,0,1,4.13,1.33C258.85,250.91,259.15,251.53,259,251.69Z" style="fill:#263238"></path><path d="M234.43,251.69c-.33.34-2.34-1.14-5.19-1.14s-5,1.43-5.26,1.08c-.15-.15.18-.77,1.1-1.44a7.24,7.24,0,0,1,4.2-1.29,7,7,0,0,1,4.13,1.33C234.29,250.91,234.59,251.53,234.43,251.69Z" style="fill:#263238"></path><path d="M232.58,244.48c-.23.73-2.61.77-5.24,1.45s-4.7,1.68-5.34,1.16c-.29-.25-.1-.92.66-1.7a8.23,8.23,0,0,1,3.84-2,9.16,9.16,0,0,1,4.49,0C232.11,243.65,232.68,244.14,232.58,244.48Z" style="fill:#263238"></path><path d="M257.55,243.84c-.62.85-3.36,1.41-6.11,1.25s-4.48-1-3.86-1.81,3.37-1.41,6.12-1.25S258.18,243,257.55,243.84Z" style="fill:#263238"></path><path d="M238.82,274.7c.05.17-.33.47-1.09.58a4,4,0,0,1-4.37-3.27c-.12-.76.07-1.21.24-1.21.36,0,.67,1.6,2.09,2.65S238.74,274.35,238.82,274.7Z" style="fill:#263238"></path><path d="M247.7,293.38s-14.59.34-18-2.16c0,0,2.63,7,18.08,6.19Z" style="fill:#eb996e"></path><path d="M252,257.81a2.45,2.45,0,0,0,2.17,2.64,2.33,2.33,0,0,0,2.67-2,2.44,2.44,0,0,0-2.16-2.63A2.34,2.34,0,0,0,252,257.81Z" style="fill:#263238"></path><path d="M228.47,257.81a2.45,2.45,0,0,0,2.16,2.64,2.34,2.34,0,0,0,2.68-2,2.44,2.44,0,0,0-2.17-2.63A2.33,2.33,0,0,0,228.47,257.81Z" style="fill:#263238"></path><path d="M207.94,255.18c1.56,1.54,0,5,2,6,1.39.71,2.88-.76,3.63-2.13a21.79,21.79,0,0,0,2.58-8.8,34.41,34.41,0,0,1,.39-4.88,5.63,5.63,0,0,1,2.67-3.93c1.32-.66,2.88-.52,4.35-.67a13.31,13.31,0,0,0,10.05-5.6c2.39-3.42,2.6-4.85,3.93-8.81.37,4.65-1.76,8.92-4.13,12.94,4.78-1.42,10.47-5.59,12.91-9.94.32,3.42,3.75,4.19,7.09,5,1.85.44,3.94.3,5.46,1.45s1.91,3.11,2,4.94,3.54,4.77,4.15,6.5.49,3.82,2.12.87a33.65,33.65,0,0,0-9.23-26c-6.25-6.37-14.68-7.19-23.58-6.55A31.93,31.93,0,0,0,211.88,227a27.43,27.43,0,0,0-5.12,24.39" style="fill:#263238"></path><path d="M241.3,265.86c0-.17.85,0,2.06-.23a5.46,5.46,0,0,0,1-.25,3.91,3.91,0,0,0,.94-.44c.1-.09.09-.11.09-.14a1.2,1.2,0,0,0-.14-.39l-.62-1.32c-1.67-3.64-2.77-6.7-2.48-6.84s1.9,2.7,3.56,6.34c.21.46.41.9.6,1.34a1.84,1.84,0,0,1,.21.94,1.29,1.29,0,0,1-.57,1,2.81,2.81,0,0,1-.7.32,3.9,3.9,0,0,1-.62.18,5.45,5.45,0,0,1-1.15.14C242,266.48,241.25,266,241.3,265.86Z" style="fill:#263238"></path><path d="M194.56,230.86h0Z" style="fill:#FF6666"></path><path d="M194.71,230.89l-.15,0Z" style="fill:#FF6666"></path><path d="M194.93,230.93h0Z" style="fill:#FF6666"></path><path d="M194.86,230.92l-.15,0Z" style="fill:#FF6666"></path><path d="M194.93,230.93h0Z" style="fill:#FF6666"></path><path d="M246.49,203c-4.91-4.32-13.79-7.9-20.33-8.05-4.27-.09-9.47.19-13.45,1.74a41.9,41.9,0,0,0-11.38,6.19,132.93,132.93,0,0,0-10.71,9.15c-3.33,3.19-6.4,6.64-8.42,11.92-1,2.7,1.93,4.58,4.43,3.15a48.19,48.19,0,0,0,10.55-7.75c-.61,4.87-1.26,7-1.45,11.57l64-10.6C257.68,216.13,251.4,207.33,246.49,203Z" style="fill:#FF6666"></path><path d="M194.49,230.85h0Z" style="fill:#FF6666"></path><path d="M189.91,228.2a9.5,9.5,0,0,0-7.66-9.22c-2.5-.92-6.49,1.62-7.91,3.88a9.49,9.49,0,0,0,.19,10.25,8.89,8.89,0,0,0,9.6,3.35A8.36,8.36,0,0,0,189.91,228.2Z" style="fill:#fafafa"></path><path d="M189.91,228.2a5.53,5.53,0,0,1-.08,2.16,8.59,8.59,0,0,1-3.11,5,8.09,8.09,0,0,1-3.77,1.62,9.15,9.15,0,0,1-8.74-3.86,9.32,9.32,0,0,1-1.53-5.37,8.91,8.91,0,0,1,3.2-6.91A11.05,11.05,0,0,1,179,219a5,5,0,0,1,3.35-.2h0a9.76,9.76,0,0,1,4.74,2.5,10.06,10.06,0,0,1,2.23,3.45,9.88,9.88,0,0,1,.62,2.56,5.09,5.09,0,0,1,0,.7.52.52,0,0,1,0,.23,15.86,15.86,0,0,0-.88-3.39,10.26,10.26,0,0,0-2.25-3.3,9.53,9.53,0,0,0-4.57-2.31h0a4.61,4.61,0,0,0-3,.23,10.53,10.53,0,0,0-2.94,1.76,8.45,8.45,0,0,0-3,6.54,8.94,8.94,0,0,0,1.43,5.08,8.65,8.65,0,0,0,3.82,3.1,8.79,8.79,0,0,0,4.44.62,7.66,7.66,0,0,0,3.6-1.5,8.53,8.53,0,0,0,3.14-4.7A12.77,12.77,0,0,0,189.91,228.2Z" style="fill:#263238"></path><path d="M180.21,232.26c0,.06-.45.22-1.22.14a4.07,4.07,0,0,1-3.59-4.18c0-.77.27-1.2.33-1.18s0,.47,0,1.17a4.42,4.42,0,0,0,1,2.46,4.37,4.37,0,0,0,2.28,1.37C179.74,232.21,180.2,232.18,180.21,232.26Z" style="fill:#263238"></path><path d="M182.15,232.91c0,.06-.33.11-.83,0a4.18,4.18,0,0,1-1.79-.9,4,4,0,0,1-1.16-1.63c-.18-.48-.19-.8-.12-.82a11.69,11.69,0,0,0,1.62,2.05A13.39,13.39,0,0,0,182.15,232.91Z" style="fill:#263238"></path><path d="M184.5,232.32c0,.13-.81.1-1.58-.44s-1.09-1.26-1-1.32.58.43,1.26.9S184.53,232.17,184.5,232.32Z" style="fill:#263238"></path><path d="M271.25,223.11a9.17,9.17,0,0,0-5.44-7.49c-3.9-1.79-8.6-1.11-12.89-.38l-44.77,7.62-10.25,1.27A10.08,10.08,0,0,0,189,235.36a6.92,6.92,0,0,0,.14.77,12.14,12.14,0,0,0,9.37,8.75c3.35.7,6.82.06,10.14-.57l46.23-8.77c4.42-.84,9.05-1.77,12.39-4.36A9.67,9.67,0,0,0,271.25,223.11Z" style="fill:#fafafa"></path><path d="M271.25,223.11a5.84,5.84,0,0,1-.06,1.92,9.56,9.56,0,0,1-2.43,4.89,16,16,0,0,1-7.5,4.31c-3.27,1-7.1,1.58-11.28,2.42l-29.45,5.65L212,243.92a86.56,86.56,0,0,1-9,1.47,17.24,17.24,0,0,1-4.69-.27,12.83,12.83,0,0,1-4.41-1.87,11.58,11.58,0,0,1-5.26-8,9.92,9.92,0,0,1,.63-4.89,10.56,10.56,0,0,1,7.08-6.19,43.2,43.2,0,0,1,4.63-.69l4.53-.55,2.23-.28c.74-.09,1.47-.24,2.2-.36l8.54-1.44,29.57-5c4.21-.67,8-1.49,11.43-1.53a16,16,0,0,1,4.72.58,10.41,10.41,0,0,1,3.55,1.81,9.12,9.12,0,0,1,3.11,4.48,5.83,5.83,0,0,1,.32,1.9,10.4,10.4,0,0,0-.42-1.86,9.17,9.17,0,0,0-3.14-4.36,12.45,12.45,0,0,0-8.13-2.26c-3.38.06-7.17.91-11.38,1.6l-29.55,5.09-8.55,1.47c-.73.11-1.46.26-2.2.36l-2.23.28-4.53.56a45.09,45.09,0,0,0-4.56.67,10.09,10.09,0,0,0-6.74,5.89,9.51,9.51,0,0,0-.59,4.64,11.07,11.07,0,0,0,5,7.63,12.41,12.41,0,0,0,4.23,1.79,16.62,16.62,0,0,0,4.56.27,87.9,87.9,0,0,0,8.88-1.44l8.52-1.61,29.47-5.54c4.19-.82,8-1.38,11.26-2.34a15.94,15.94,0,0,0,7.44-4.16,9.77,9.77,0,0,0,2.48-4.78A12.15,12.15,0,0,0,271.25,223.11Z" style="fill:#263238"></path><path d="M204.93,203.87c.07.06-.75,1-1.89,2.67a32.42,32.42,0,0,0-1.8,3,36.67,36.67,0,0,0-1.83,3.91,51.57,51.57,0,0,0-2.12,7.56,24.63,24.63,0,0,1-.72,3.2,16.71,16.71,0,0,1,.36-3.26,41.29,41.29,0,0,1,2-7.69,33.09,33.09,0,0,1,1.9-3.95,26.69,26.69,0,0,1,1.92-3c.61-.81,1.16-1.43,1.54-1.85A3.12,3.12,0,0,1,204.93,203.87Z" style="fill:#263238"></path><g style="opacity:0.30000000000000004"><path d="M197.23,219.66c1.36-5,3.05-9.6,5.57-12.9a31.46,31.46,0,0,1,6.39-6.75A20.64,20.64,0,0,0,197.23,219.66Z"></path></g><path d="M254.16,232.15a15.83,15.83,0,0,0,3.94-8.87" style="fill:#e0e0e0"></path><path d="M258.1,223.28a12,12,0,0,1-3.94,8.87c-.12-.11,1.35-1.77,2.43-4.23A48.72,48.72,0,0,0,258.1,223.28Z" style="fill:#263238"></path><path d="M261.44,221.51a5.74,5.74,0,0,1-.63,4,5.82,5.82,0,0,1-2.72,3,20.63,20.63,0,0,0,2.25-3.2A20.46,20.46,0,0,0,261.44,221.51Z" style="fill:#263238"></path><path d="M263.9,220.69a5.09,5.09,0,0,1-2.38,5.07c-.11-.11.83-1,1.48-2.4S263.75,220.68,263.9,220.69Z" style="fill:#263238"></path><path d="M194.37,416.55s-3.05,22-1.5,31.82a47.28,47.28,0,0,0,7.2,17.75l48.12,1.29v9.26s73.09,2.32,79.26,0,10-12.35,8.49-20.33-14.41-18.52-28.82-21.61-57.91-12.21-57.91-12.21Z" style="fill:#263238"></path><path d="M334.33,469.25s6.49-2.52,8.87-8.28,3.89-15.58-1.08-24.67c-1.34-2.44-8.08-10.49-20.13-13.17S258.75,416,258.75,416l-16.37,7.14Z" style="fill:#263238"></path><path d="M310,459.59c0,.05-.71-.54-2.06-1.43a32.76,32.76,0,0,0-6-3.15,60.34,60.34,0,0,0-9.67-2.92A101.63,101.63,0,0,0,280,450.26a58.07,58.07,0,0,0-6.4-.23,55.16,55.16,0,0,0-5.94.48,51.39,51.39,0,0,0-9.8,2.42,60.73,60.73,0,0,0-6.28,2.65c-.73.34-1.28.65-1.67.83a3.13,3.13,0,0,1-.59.26,2.78,2.78,0,0,1,.54-.36c.37-.21.91-.54,1.63-.91A50.38,50.38,0,0,1,267.6,450a53.6,53.6,0,0,1,6-.52,58.83,58.83,0,0,1,6.45.22,96.67,96.67,0,0,1,12.31,1.88,58.58,58.58,0,0,1,9.71,3.05,30.47,30.47,0,0,1,6,3.32,14.74,14.74,0,0,1,1.46,1.16A3.47,3.47,0,0,1,310,459.59Z" style="fill:#455a64"></path><path d="M312.16,455.83c.06.13-.85.67-2,1.21a5.63,5.63,0,0,1-2.27.74,5.78,5.78,0,0,1,2-1.21A5.6,5.6,0,0,1,312.16,455.83Z" style="fill:#455a64"></path><path d="M268.68,428h.24l.71,0c.63,0,1.54.1,2.73.2,2.36.2,5.78.56,10,1.27s9.15,1.54,14.69,2.34a96.94,96.94,0,0,1,17.81,4c6.12,2.14,11.61,5.39,15.45,9.56a19.7,19.7,0,0,1,5.82,19.05,24.13,24.13,0,0,1-1.26,4.15,15.22,15.22,0,0,1-1.26,2.43c-.17.26-.32.45-.42.58s-.15.19-.16.18.17-.28.49-.81a18.5,18.5,0,0,0,1.16-2.46,25,25,0,0,0,1.16-4.12,19.53,19.53,0,0,0-5.88-18.67c-3.79-4.08-9.21-7.28-15.27-9.4a100.29,100.29,0,0,0-17.71-4c-5.54-.83-10.52-1.68-14.68-2.45s-7.57-1.16-9.92-1.43l-2.72-.3-.7-.08A.68.68,0,0,1,268.68,428Z" style="fill:#455a64"></path><path d="M248.19,476.67l-.31-19.2-23,3-2.68-.72s-9.87-7.57-12.11-8.17c-2-.54-7.48.35-9.57,4.52s-2.78,8.7-4.69,9.57-20.05,2.84-20.22,10.67Z" style="fill:#e0e0e0"></path><path d="M248.19,476.67a2,2,0,0,1-.34,0h-1l-4.07,0H227.5l-51.87-.1h-.27l0-.26a5.69,5.69,0,0,1,.48-2.07,6.89,6.89,0,0,1,1.21-1.76,12.9,12.9,0,0,1,3.41-2.49,38.51,38.51,0,0,1,8-2.89c2-.5,3.93-.9,5.86-1.33,2.18,0,2.85-2.11,3.56-3.87s1.29-3.64,2.12-5.38a8.37,8.37,0,0,1,3.89-4.13,10.64,10.64,0,0,1,5.43-1.2,3.73,3.73,0,0,1,1.38.34c.41.2.81.42,1.19.65.78.45,1.51.94,2.24,1.42,2.9,2,5.6,4,8.18,6l-.08,0,2.67.72h-.08l23-2.95.18,0v.18c.06,6.07.11,10.88.14,14.2,0,1.62,0,2.87,0,3.74,0,.4,0,.72,0,.95a1.35,1.35,0,0,1,0,.31s0-.12,0-.34,0-.57,0-1c0-.88-.06-2.14-.1-3.77-.08-3.3-.18-8.07-.32-14.1l.18.15-23,3.08h-.08l-2.68-.72h0l0,0c-2.57-1.94-5.28-3.95-8.17-5.9-.72-.48-1.45-1-2.21-1.4a5,5,0,0,0-2.37-.92,10.08,10.08,0,0,0-5.15,1.16,7.79,7.79,0,0,0-3.67,3.9c-.81,1.7-1.42,3.52-2.1,5.35a13.48,13.48,0,0,1-1.28,2.69,3,3,0,0,1-1.17,1.09,10,10,0,0,1-1.48.41c-1.94.43-3.89.82-5.84,1.33a37.27,37.27,0,0,0-7.92,2.84,12.48,12.48,0,0,0-3.29,2.38,6.31,6.31,0,0,0-1.11,1.62,5.07,5.07,0,0,0-.44,1.87l-.25-.26,51.68.33,15.29.14,4.13.05,1.08,0Z" style="fill:#263238"></path><path d="M244.64,477a13.38,13.38,0,0,1-.34-2.73c-.13-1.68-.25-4-.33-6.59s-.1-4.92-.09-6.61a14,14,0,0,1,.13-2.73,13.37,13.37,0,0,1,.24,2.73c.08,1.68.17,4,.24,6.59s.13,4.73.18,6.6A15.48,15.48,0,0,1,244.64,477Z" style="fill:#AFE96C"></path><path d="M242.29,477a13.34,13.34,0,0,1-.34-2.72c-.13-1.69-.25-4-.33-6.6s-.1-4.91-.09-6.61a14,14,0,0,1,.13-2.73,14.32,14.32,0,0,1,.24,2.73c.08,1.68.16,4,.24,6.59s.13,4.73.18,6.6A16.71,16.71,0,0,1,242.29,477Z" style="fill:#AFE96C"></path><path d="M217.75,456.44a2.63,2.63,0,0,1-.35.86,12.61,12.61,0,0,1-1.38,2.11,14.66,14.66,0,0,1-6.71,4.82,16,16,0,0,1-8.28-.1,10.14,10.14,0,0,1-2.34-.95,2.41,2.41,0,0,1-.74-.55,17.14,17.14,0,0,0,3.18,1.14,16.94,16.94,0,0,0,8,0,15.3,15.3,0,0,0,6.58-4.56C217.1,457.59,217.67,456.39,217.75,456.44Z" style="fill:#455a64"></path><path d="M186,476.41c-.14-.05.32-1.86.46-4.14s-.21-4.11-.08-4.15.78,1.82.6,4.18A9.15,9.15,0,0,1,186,476.41Z" style="fill:#455a64"></path><path d="M251.14,300.67s9.38,2.32,14.15,9.58c4.4,6.69,10.23,37,10.23,37l3.92,26.67-14.15,17.5L251.16,308Z" style="fill:#455a64"></path><path d="M209.46,296.9s-21.94,16.5-23.05,33.35c-.58,8.85.36,61.9.72,80.7a5.67,5.67,0,0,1-.47,2.41c-.93,2.21.57,9.72,2.94,10.13,14.68,2.54,52.74,6,69.19,1l8.08-4.79s-2.56-78.33-3.33-87.61c-1.31-15.64-12.4-27.37-12.4-27.37h0a28.09,28.09,0,0,1-33-.82Z" style="fill:#455a64"></path><path d="M260.73,315.19a5,5,0,0,1,.24.67c.15.49.36,1.13.6,1.92.53,1.68,1.21,4.12,2,7.16s1.6,6.68,2.39,10.75,1.5,8.58,2.09,13.33.93,9.3,1.15,13.45.28,7.87.24,11-.1,5.67-.21,7.42c-.06.84-.1,1.5-.13,2a3.9,3.9,0,0,1-.08.7,3.28,3.28,0,0,1,0-.71q0-.77,0-2c.05-1.75.08-4.29.05-7.42s-.12-6.86-.35-11-.62-8.66-1.19-13.41-1.3-9.23-2-13.3-1.54-7.71-2.27-10.75-1.36-5.5-1.82-7.19l-.51-1.95A3.19,3.19,0,0,1,260.73,315.19Z" style="fill:#263238"></path><path d="M206.25,298.34s1.54-5.87,3.21-5.67,14.66,6.93,23,7.13,18.78-2.72,20.67-1.25,0,8.62,0,8.62-11.07,10-22.43,5.41S206.25,298.34,206.25,298.34Z" style="fill:#455a64"></path><path d="M254.28,303.25a1.59,1.59,0,0,1-.46.2l-1.34.49a21.76,21.76,0,0,1-2.16.68c-.85.23-1.82.53-2.91.74s-2.28.48-3.58.65-2.68.32-4.15.45a54.14,54.14,0,0,1-18.94-2.08c-1.4-.45-2.74-.85-4-1.35s-2.34-.94-3.35-1.41-1.9-.94-2.68-1.35-1.44-.8-2-1.13l-1.21-.77c-.27-.18-.41-.28-.4-.3a2.26,2.26,0,0,1,.46.21l1.25.68c.54.31,1.2.68,2,1.05s1.67.86,2.7,1.27,2.12.93,3.35,1.35,2.54.86,3.94,1.29A56.49,56.49,0,0,0,239.65,306c1.46-.12,2.84-.2,4.12-.4s2.48-.37,3.56-.59,2.06-.45,2.91-.65,1.58-.41,2.18-.59l1.37-.39A1.58,1.58,0,0,1,254.28,303.25Z" style="fill:#263238"></path><path d="M322.07,346.91a6.11,6.11,0,0,0-2.88.15,29.71,29.71,0,0,0-17.09,13.29,2.44,2.44,0,1,0-4.8.71,52,52,0,0,0-9.09-16.88,2.6,2.6,0,0,0-3.58-.5,9.29,9.29,0,0,0-3.57,6.88c-.14,3.5-4.52,9.13-1.75,11.27s9.72,4.76,13.22,4.58h0c8.68.13,16.06,1.56,24.71.71a11.46,11.46,0,0,0,5.36-1.46c2.88-1.94,3.44-5.88,3.73-9.34C326.64,352.55,326.48,347.81,322.07,346.91Z" style="fill:#263238"></path><path d="M285.28,354.83a7,7,0,0,1,2,.6,28.07,28.07,0,0,1,4.59,2.26,28.72,28.72,0,0,1,4.13,3,6.82,6.82,0,0,1,1.47,1.53c-.11.12-2.48-2.06-5.87-4.1S285.22,355,285.28,354.83Z" style="fill:#455a64"></path><path d="M312.72,357a32.53,32.53,0,0,0-5.49,1.82,33.78,33.78,0,0,0-4.82,3.19,13.42,13.42,0,0,1,10.31-5Z" style="fill:#455a64"></path><path d="M302.36,361.77c-.09,0,0-.61-.22-1.49a3.07,3.07,0,0,0-.76-1.33,2.34,2.34,0,0,0-1.64-.71,2.28,2.28,0,0,0-1.6.78,2.88,2.88,0,0,0-.69,1.37c-.19.88-.06,1.48-.15,1.49a2.3,2.3,0,0,1-.22-1.56,3.23,3.23,0,0,1,.69-1.62,2.65,2.65,0,0,1,2-1,2.74,2.74,0,0,1,2,.89,3.17,3.17,0,0,1,.77,1.59A2.32,2.32,0,0,1,302.36,361.77Z" style="fill:#455a64"></path><rect x="259.69" y="362.88" width="86.46" height="65.11" style="fill:#4592AF"></rect><rect x="329.81" y="362.88" width="16.35" height="65.11" style="opacity:0.30000000000000004"></rect><rect x="293.07" y="362.64" width="8.08" height="65.36" style="fill:#263238"></rect><g style="opacity:0.30000000000000004"><path d="M315.81,395.34a1.73,1.73,0,0,0,.27-2.11,2.56,2.56,0,0,0-2.16-.68l-11,.09a12.21,12.21,0,0,1,1.94-3.82A156.94,156.94,0,0,0,268.68,399l2.15,13.3a91.67,91.67,0,0,0,42.94.65l-11.56-4.64c5-1.53,10.45-3.41,13.06-7.93l-9.91-.65,8.46-3.28A5.08,5.08,0,0,0,315.81,395.34Z"></path></g><path d="M267.93,394.51s3.29.27,4.5-.74,11-13.23,12.63-13.93,9-2.53,9-2.53,2.43,2.22-1.41,5.05l-3.13,1.31L286.37,388a16.15,16.15,0,0,0,6.16.86c2.62-.36,12.62-2.48,14.84-2.88s5.25-.81,5.76,0,.9,2.25,0,2.84-13.74,4.49-13.74,4.49,17-4,17.77-3.6.71,2.55,0,3.6-12,4.48-12,4.48l-4.24,1.92s13.93-3.33,15.45-3,1.61,2.83.6,3.73-10.1,3.74-10.1,3.74l-7,1.82s3.43,2,4.84,2,7.58-.2,8.18,1.61-.5,2.22-.5,2.22-14.74-.2-15.65-.5-19.49-.4-21.61-.2-4.38.65-4.38.65Z" style="fill:#ffbe9d"></path><path d="M346.31,362.64c0,.14-19.43.26-43.38.26s-43.39-.12-43.39-.26,19.42-.27,43.39-.27S346.31,362.49,346.31,362.64Z" style="fill:#455a64"></path><polygon points="232.08 375.04 235.38 376.07 235.69 374.79 232.08 375.04" style="fill:#e0e0e0"></polygon><path d="M237.78,366.18l-5.62.38c-.35,1.52-.67,2.88-.94,4l5.58-.37Z" style="fill:#e0e0e0"></path><path d="M242.36,347.3l-5.74.39-1.26,5.24,5.73-.38Z" style="fill:#e0e0e0"></path><path d="M240,357.12l-5.7.39L233.22,362l5.67-.38Z" style="fill:#e0e0e0"></path><path d="M250.91,340.17l-1.27,2.14,5.85-.39a15,15,0,0,0,1.74-4.48l-5.13.35A15.8,15.8,0,0,1,250.91,340.17Z" style="fill:#e0e0e0"></path><path d="M244.55,338.3l-5.68.38c-.34,1.29-.72,2.79-1.13,4.43l5.74-.38Z" style="fill:#e0e0e0"></path><path d="M250.41,332a2.91,2.91,0,0,1,2,1.3l4.79-.32a7,7,0,0,0-2.63-4.06l-11.9.8a14.94,14.94,0,0,0-2.42,4.4l5.64-.38A3.77,3.77,0,0,1,250.41,332Z" style="fill:#e0e0e0"></path><path d="M236.8,370.22l-5.58.37-.89,3.9,1.75.55,3.61-.25Z" style="fill:#ff6666"></path><path d="M238.89,361.61l-5.67.38c-.38,1.62-.73,3.16-1.06,4.57l5.62-.38Z" style="fill:#ff6666"></path><path d="M241.09,352.55l-5.73.38c-.36,1.53-.73,3.07-1.08,4.58l5.7-.39Z" style="fill:#ff6666"></path><path d="M249.29,342.91l3.29,2.94a20,20,0,0,0,2.91-3.93l-5.85.39Z" style="fill:#ff6666"></path><path d="M243.48,342.73l-5.74.38-1.12,4.58,5.74-.39Z" style="fill:#ff6666"></path><path d="M248.75,326.86c-1.55-.23-4,.26-6.12,2.83l11.9-.8A12.5,12.5,0,0,0,248.75,326.86Z" style="fill:#ff6666"></path><path d="M245,336.34a6.68,6.68,0,0,1,.82-2.63l-5.64.38c-.19.51-.37,1-.53,1.61-.23.78-.5,1.8-.81,3l5.68-.38Z" style="fill:#ff6666"></path><path d="M252.1,337.79l5.13-.35a10.37,10.37,0,0,0,.16-3.3,10,10,0,0,0-.23-1.19l-4.79.32C253.11,334.52,252.68,336.33,252.1,337.79Z" style="fill:#ff6666"></path><path d="M257.39,334.14a5.3,5.3,0,0,1,.1.87,10.24,10.24,0,0,1-.2,2.55,18.08,18.08,0,0,1-4.61,8.4l-.09.1-.11-.1-3.3-2.92-.1-.09.06-.12c.71-1.26,1.56-2.56,2.28-4a12.91,12.91,0,0,0,.89-2.27,5.39,5.39,0,0,0,.17-2.46,2.38,2.38,0,0,0-1.56-1.78,5,5,0,0,0-2.63-.24,3.35,3.35,0,0,0-2.15,1.54,6.3,6.3,0,0,0-.89,2.7v0h0c-2.53,10.46-5.5,22.75-8.67,35.84-.32,1.31-.63,2.61-.94,3.9l-.07.27-.27-.08-5.05-1.58-.23-.08.06-.23c2.09-9.08,4.1-17.64,6-25.35.94-3.86,1.85-7.5,2.74-10.89.23-.85.46-1.68.68-2.5s.51-1.61.83-2.36a14,14,0,0,1,2.43-4,8,8,0,0,1,3.53-2.37,5.8,5.8,0,0,1,2-.27,14.47,14.47,0,0,1,1.82.27,9.77,9.77,0,0,1,5.36,2.59,7.07,7.07,0,0,1,1.78,3.31c.09.43.13.75.17,1s0,.33,0,.33a1.55,1.55,0,0,1-.09-.32c-.05-.24-.12-.55-.21-.95a7.28,7.28,0,0,0-1.82-3.21A9.81,9.81,0,0,0,250,327.2a17,17,0,0,0-1.78-.24,5.74,5.74,0,0,0-1.86.27,7.75,7.75,0,0,0-3.36,2.31,13.79,13.79,0,0,0-2.34,3.93c-.31.75-.53,1.54-.8,2.33s-.44,1.65-.66,2.49c-.88,3.39-1.77,7-2.69,10.9-1.85,7.72-3.84,16.27-5.92,25.36l-.18-.31,5.06,1.58-.33.19c.31-1.29.63-2.59,1-3.91,3.18-13.08,6.18-25.36,8.73-35.82v0a6.83,6.83,0,0,1,1-2.91,3.74,3.74,0,0,1,2.43-1.72,5.46,5.46,0,0,1,2.87.27,2.79,2.79,0,0,1,1.8,2.09,5.74,5.74,0,0,1-.19,2.65,14,14,0,0,1-.93,2.32c-.76,1.45-1.6,2.72-2.32,4l0-.21,3.27,2.95h-.2a18.3,18.3,0,0,0,4.67-8.22,11.36,11.36,0,0,0,.27-2.52l0-.65A.63.63,0,0,1,257.39,334.14Z" style="fill:#263238"></path><g style="opacity:0.30000000000000004"><path d="M190,386.74a70.36,70.36,0,0,0,1,17.33c1,4.6,3.33,9.06,7.2,11.73,4.53,3.13,10.38,3.61,15.88,3.57,16.16-.09,32-.39,46.7-5.17-16.55.08-34.39,1.36-49.88-4.46-8.08-3-19.53-14.47-20.87-23"></path></g><path d="M213.63,315.51c-4.11-3.1-13.46-2.09-16.74,1.87-3.75,4.55-6.4,10.76-6.7,20.28-.49,15.1-1.95,61.38,2.92,68.69s10.23,7.79,17.54,9.26,60.13-1.19,60.13-1.19l-3.45-24.1-46.94-6.87s1.46-47.25,1-52.61C221,327.27,220.13,320.39,213.63,315.51Z" style="fill:#455a64"></path><path d="M205.75,394.44a9.09,9.09,0,0,1,1.35-2.39,21.56,21.56,0,0,1,10.45-7.88,9.42,9.42,0,0,1,2.66-.64c0,.09-1,.36-2.53,1a24.77,24.77,0,0,0-10.29,7.76C206.36,393.58,205.83,394.48,205.75,394.44Z" style="fill:#263238"></path><path d="M203.07,386.74a9.29,9.29,0,0,1,2.25-1.18,26.86,26.86,0,0,1,5.89-1.74,27.37,27.37,0,0,1,6.13-.4,9.31,9.31,0,0,1,2.53.33,19.17,19.17,0,0,1-2.53,0,35.41,35.41,0,0,0-11.89,2.12A16.87,16.87,0,0,1,203.07,386.74Z" style="fill:#263238"></path><path d="M205.75,312.58s.63,0,1.82.11a16.94,16.94,0,0,1,5.12,1.35,13.69,13.69,0,0,1,6.26,5.67,20.92,20.92,0,0,1,2.56,11.14v0c.17,3.35.1,7,.07,10.89s-.13,8.08-.21,12.5c-.19,8.84-.44,18.66-.75,29.24l-.2-.23,47,6.84.19,0,0,.19,3.33,23.23.12.86,0,.29h-.28c-10.35.5-20.45.92-30.21,1.23q-7.32.22-14.37.34c-4.69.05-9.29.11-13.79-.19l-1.68-.2c-.56-.09-1.1-.21-1.64-.31-1.09-.22-2.17-.42-3.24-.66a25.09,25.09,0,0,1-6.16-2.06,16.9,16.9,0,0,1-5-3.94c-.32-.41-.66-.8-1-1.21l-.89-1.26a11.43,11.43,0,0,1-1.15-2.85,44.68,44.68,0,0,1-1.08-5.8c-.25-1.91-.41-3.79-.56-5.64-.27-3.69-.42-7.24-.52-10.63-.34-13.55,0-24.52.16-32.09.12-3.77.22-6.7.29-8.71,0-1,.07-1.74.1-2.27s.05-.77.05-.77,0,.26,0,.77,0,1.29-.05,2.27c0,2-.11,4.94-.19,8.72-.13,7.57-.38,18.53,0,32.07.11,3.39.27,6.93.55,10.61.15,1.84.32,3.72.58,5.62a41.65,41.65,0,0,0,1.08,5.74,10.78,10.78,0,0,0,1.1,2.72l.87,1.23c.31.41.64.79,1,1.19a16.39,16.39,0,0,0,4.82,3.82,24.45,24.45,0,0,0,6.05,2c1.06.24,2.14.44,3.23.65.54.1,1.09.22,1.64.31l1.63.2c4.46.28,9.06.22,13.75.16s9.48-.19,14.35-.35c9.76-.32,19.86-.74,30.2-1.24l-.24.3-.13-.87c-1.14-8-2.25-15.77-3.32-23.23l.22.22-46.94-6.9-.2,0v-.2c.3-10.58.57-20.4.82-29.24q.14-6.63.26-12.5c0-3.9.13-7.54,0-10.85v0h0a20.74,20.74,0,0,0-2.47-11,13.61,13.61,0,0,0-6.13-5.64,17.23,17.23,0,0,0-5.06-1.41c-.59-.09-1.05-.1-1.35-.14Z" style="fill:#263238"></path><path d="M220.85,370.18c0,.1-1.71-.65-4.56-1.35a32.53,32.53,0,0,0-5.06-.81,35.8,35.8,0,0,0-6.27.08,36.63,36.63,0,0,0-6.15,1.28,33.12,33.12,0,0,0-4.78,1.88c-2.63,1.28-4.1,2.37-4.16,2.28a6,6,0,0,1,1-.79,11.26,11.26,0,0,1,1.25-.83c.51-.3,1.07-.67,1.74-1a30.07,30.07,0,0,1,4.8-2,33.68,33.68,0,0,1,6.23-1.33,33.22,33.22,0,0,1,6.37,0,31.06,31.06,0,0,1,5.12.93c.72.17,1.34.42,1.9.6a13.52,13.52,0,0,1,1.41.55A6.7,6.7,0,0,1,220.85,370.18Z" style="fill:#fff"></path><path d="M220.85,349c0,.1-1.71-.65-4.56-1.35a32.53,32.53,0,0,0-5.06-.81,33.2,33.2,0,0,0-12.42,1.36,34.32,34.32,0,0,0-4.78,1.88c-2.63,1.29-4.1,2.37-4.16,2.28a6,6,0,0,1,1-.79,11.26,11.26,0,0,1,1.25-.83c.51-.3,1.07-.67,1.74-1a30.07,30.07,0,0,1,4.8-2,33.68,33.68,0,0,1,6.23-1.33,33.22,33.22,0,0,1,6.37,0,30,30,0,0,1,5.12.94c.72.17,1.34.41,1.9.59a13.52,13.52,0,0,1,1.41.55A6.7,6.7,0,0,1,220.85,349Z" style="fill:#fff"></path><path d="M221.06,330c0,.1-1.68-.73-4.51-1.49-.71-.18-1.49-.38-2.34-.51s-1.76-.26-2.72-.37a30.3,30.3,0,0,0-12.39,1.49c-.91.34-1.78.63-2.56,1a22.52,22.52,0,0,0-2.14,1.05c-2.57,1.41-4,2.61-4,2.52a5.31,5.31,0,0,1,.95-.86,12.29,12.29,0,0,1,1.21-.9,17.91,17.91,0,0,1,1.69-1.08,22.33,22.33,0,0,1,2.15-1.13,27.34,27.34,0,0,1,2.57-1.06,29.33,29.33,0,0,1,12.6-1.52c1,.13,1.9.23,2.75.43a20.91,20.91,0,0,1,2.36.58,17.9,17.9,0,0,1,1.89.65,10.18,10.18,0,0,1,1.39.59A6,6,0,0,1,221.06,330Z" style="fill:#fff"></path><path d="M220.75,383.53c0,.11-2,.25-5.14,1.06-.78.21-1.63.45-2.53.78s-1.84.69-2.82,1.09a40,40,0,0,0-6.06,3.38,40.44,40.44,0,0,0-5.31,4.47c-.73.78-1.44,1.5-2,2.25s-1.15,1.44-1.62,2.09c-1.87,2.65-2.71,4.49-2.81,4.44a7.47,7.47,0,0,1,.56-1.3,14.94,14.94,0,0,1,.79-1.47c.33-.56.68-1.21,1.16-1.88s1-1.41,1.59-2.15,1.29-1.52,2-2.32a39.37,39.37,0,0,1,5.36-4.56,38.82,38.82,0,0,1,6.17-3.39A29.28,29.28,0,0,1,213,385a23.16,23.16,0,0,1,2.57-.72c.79-.22,1.53-.31,2.17-.43a13.52,13.52,0,0,1,1.65-.21A7.86,7.86,0,0,1,220.75,383.53Z" style="fill:#fff"></path><path d="M228.44,415.5a4.38,4.38,0,0,1-.73-1,15.25,15.25,0,0,1-1.43-3.07,22.83,22.83,0,0,1-.67-11.07,45.2,45.2,0,0,1,3.45-10.58c.58-1.3,1.08-2.34,1.43-3a5.91,5.91,0,0,1,.6-1.08,6.31,6.31,0,0,1-.41,1.16c-.35.84-.78,1.88-1.28,3.11a51.09,51.09,0,0,0-3.27,10.52,23.75,23.75,0,0,0,.5,10.88A27.94,27.94,0,0,0,228.44,415.5Z" style="fill:#fff"></path><path d="M251.09,415a4.11,4.11,0,0,1-.47-1,23.88,23.88,0,0,1-.94-2.86,31,31,0,0,1-.85-4.38,35.72,35.72,0,0,1-.2-5.47,35,35,0,0,1,.72-5.43,30.58,30.58,0,0,1,1.26-4.28,24,24,0,0,1,1.21-2.76,5.14,5.14,0,0,1,.56-.95c.09.05-.62,1.45-1.42,3.83a36.13,36.13,0,0,0-1.14,4.26,38.29,38.29,0,0,0-.67,5.35,39.29,39.29,0,0,0,.16,5.4,34.4,34.4,0,0,0,.73,4.35C250.61,413.5,251.18,415,251.09,415Z" style="fill:#fff"></path></g><g id="freepik--Gift--inject-7"><polygon points="516.72 378.33 540.21 354.85 576.49 354.85 548.84 378.86 516.72 378.33" style="fill:#455a64"></polygon><rect x="399.92" y="378.33" width="148.72" height="98.35" style="fill:#455a64"></rect><path d="M446.06,378.51c.09.11-10.08,8.45-22.71,18.64s-22.94,18.35-23,18.23,10.07-8.45,22.7-18.64S446,378.39,446.06,378.51Z" style="fill:#fff"></path><path d="M476.35,378.51c.09.11-16.91,14-38,30.95S400.16,440.12,400.07,440s16.91-14,38-31S476.26,378.39,476.35,378.51Z" style="fill:#fff"></path><path d="M548.64,427.51a5,5,0,0,1-.6.55l-1.77,1.48c-1.55,1.27-3.8,3.1-6.6,5.34-5.6,4.48-13.38,10.6-22,17.33l-22.1,17.21-6.7,5.21L487,476a5.89,5.89,0,0,1-.66.46A4.85,4.85,0,0,1,487,476l1.77-1.49c1.55-1.27,3.8-3.1,6.6-5.34,5.6-4.48,13.39-10.6,22-17.33l22.1-17.21,6.7-5.21L548,428A5.89,5.89,0,0,1,548.64,427.51Z" style="fill:#fff"></path><path d="M508.73,379.22c.09.11-24.27,19.49-54.41,43.29s-54.64,43-54.73,42.88S423.86,445.9,454,422.1,508.64,379.11,508.73,379.22Z" style="fill:#fff"></path><path d="M548.63,399.86c.09.11-21.84,17.58-49,39s-49.22,38.71-49.31,38.6,21.84-17.58,49-39S548.55,399.74,548.63,399.86Z" style="fill:#fff"></path><path d="M541.52,379.22c.09.11-27.19,21.8-60.91,48.43s-61.16,48.13-61.25,48,27.18-21.79,60.92-48.43S541.43,379.11,541.52,379.22Z" style="fill:#fff"></path><path d="M549,454.57a9.48,9.48,0,0,1-1.07,1c-.7.64-1.75,1.54-3.06,2.63-2.63,2.18-6.35,5.08-10.62,8.06s-8.28,5.47-11.23,7.19c-1.48.85-2.68,1.53-3.53,2a8.39,8.39,0,0,1-1.33.65,6.85,6.85,0,0,1,1.23-.83l3.44-2.11c2.9-1.79,6.86-4.33,11.12-7.3s8-5.82,10.69-7.92l3.16-2.5A7.66,7.66,0,0,1,549,454.57Z" style="fill:#fff"></path><path d="M461.74,475.79c-.15,0-.26-21.51-.26-48s.11-48.05.26-48.05.26,21.51.26,48.05S461.88,475.79,461.74,475.79Z" style="fill:#263238"></path><path d="M533.91,476.69c-.15,0-.26-21.56-.26-48.15s.11-48.15.26-48.15.26,21.55.26,48.15S534.05,476.69,533.91,476.69Z" style="fill:#263238"></path><path d="M548.64,427.51c0,.15-33.17.26-74.08.26s-74.08-.11-74.08-.26,33.16-.26,74.08-.26S548.64,427.37,548.64,427.51Z" style="fill:#263238"></path><polygon points="548.64 476.69 516.72 476.69 516.72 378.33 548.84 378.86 548.64 476.69" style="opacity:0.30000000000000004"></polygon><path d="M481.12,404.36s-15.34,11.12-18.29,24.45l1.45-.69s4.5-8.28,9-8.82C473.28,419.3,482.62,408.1,481.12,404.36Z" style="fill:#FFE75E"></path><path d="M461.33,428.79s-18.79-3.6-32.17.62l3.85,11.4s14.3-13.6,27.76-11Z" style="fill:#FFE75E"></path><g style="opacity:0.2"><path d="M481.12,404.36s-15.34,11.12-18.29,24.45l1.45-.69s4.5-8.28,9-8.82C473.28,419.3,482.62,408.1,481.12,404.36Z"></path></g><g style="opacity:0.2"><path d="M461.33,428.79s-18.79-3.6-32.17.62l3.85,11.4s14.3-13.6,27.76-11Z"></path></g><path d="M429.16,429.41l4.64,15.19s25.43-11.82,28.52-13.75l-.7-1.45S438.55,435.31,429.16,429.41Z" style="fill:#FFE95E"></path><path d="M481.12,404.36s2.25,6.21-18.29,24.45l.77,1.62s25.22-10.72,25.68-13.48A33.58,33.58,0,0,0,481.12,404.36Z" style="fill:#FFE95E"></path><path d="M463.36,429.14a1.7,1.7,0,0,1-.4,2.31c-.68.33-1.61-.17-2.06-1.12a1.71,1.71,0,0,1,.4-2.32C462,427.68,462.91,428.19,463.36,429.14Z" style="fill:#FFE95E"></path><path d="M481.27,448.72l-18.59-17.85.44-.58s26.87,8.09,26.66,8.12-9.38,2.3-9.38,2.3Z" style="fill:#FFE95E"></path><path d="M461.6,430.78s-10.94,17-11.17,24.48l6.84-3.92s6.58,6,6.11,5.86-2.51-25.71-1.47-25.77Z" style="fill:#FFE95E"></path><g style="opacity:0.2"><path d="M461,430.52a7,7,0,0,1-1,.67c-.65.41-1.61,1-2.82,1.65a68.66,68.66,0,0,1-9.78,4.51,43.78,43.78,0,0,1-10.48,2.55c-.68.1-1.31.09-1.86.13a13.28,13.28,0,0,1-1.4,0,8.11,8.11,0,0,1-1.2-.07,6.78,6.78,0,0,1,1.2-.07c.38,0,.85,0,1.39-.07s1.17-.07,1.85-.18A47.47,47.47,0,0,0,447.23,437a78.93,78.93,0,0,0,9.79-4.4c1.22-.64,2.19-1.18,2.87-1.55A7.14,7.14,0,0,1,461,430.52Z" style="fill:#fff"></path><path d="M460.64,429.84a8.4,8.4,0,0,1-1.06.61c-.34.19-.77.41-1.27.64s-1.07.52-1.73.78a43,43,0,0,1-4.63,1.65,44.4,44.4,0,0,1-11.9,1.77,44.3,44.3,0,0,1-4.92-.23c-.7-.05-1.32-.16-1.88-.23s-1-.16-1.4-.23a8.78,8.78,0,0,1-1.19-.27,8,8,0,0,1,1.21.13q.58.09,1.41.18c.55.05,1.18.14,1.87.18,1.39.11,3.05.17,4.89.14a50.55,50.55,0,0,0,6-.5,53.39,53.39,0,0,0,5.85-1.25,48.3,48.3,0,0,0,4.63-1.58c.65-.24,1.22-.51,1.74-.72s.94-.42,1.29-.59A7.69,7.69,0,0,1,460.64,429.84Z" style="fill:#fff"></path><path d="M487.52,412.87a7.53,7.53,0,0,1-.7.94c-.23.29-.52.65-.87,1.05s-.75.87-1.22,1.35c-.91,1-2.07,2.1-3.4,3.28a57.39,57.39,0,0,1-4.55,3.57,55.76,55.76,0,0,1-9.15,5.16c-1.22.54-2.23.95-2.94,1.2a6.06,6.06,0,0,1-1.12.35,9,9,0,0,1,1.06-.48c.7-.29,1.69-.73,2.9-1.3a63.69,63.69,0,0,0,9-5.22c1.67-1.18,3.2-2.38,4.55-3.53s2.5-2.24,3.43-3.21c.48-.46.88-.91,1.25-1.3s.67-.73.92-1A6.35,6.35,0,0,1,487.52,412.87Z" style="fill:#fff"></path><path d="M484.31,407.88a6.65,6.65,0,0,1-.4,1.13c-.14.37-.32.8-.56,1.3s-.49,1.08-.83,1.68-.69,1.28-1.13,2-.92,1.42-1.44,2.17a36.79,36.79,0,0,1-8.41,8.42c-.76.52-1.47,1-2.17,1.44s-1.36.81-2,1.13-1.19.59-1.68.83-.94.42-1.3.56a9.31,9.31,0,0,1-1.13.41,7.08,7.08,0,0,1,1.07-.54,13.93,13.93,0,0,0,1.27-.61c.49-.25,1.05-.51,1.65-.87s1.25-.71,1.93-1.16,1.39-.93,2.14-1.45a44.4,44.4,0,0,0,4.49-3.86,42.17,42.17,0,0,0,3.85-4.49c.52-.74,1-1.44,1.45-2.14s.82-1.33,1.16-1.93.62-1.16.87-1.65.46-.91.61-1.26A8.56,8.56,0,0,1,484.31,407.88Z" style="fill:#fff"></path><path d="M470,427.6a4.62,4.62,0,0,1-1.48-1.37,4.09,4.09,0,0,1-1-1.75,10.75,10.75,0,0,1,1.29,1.52A8.31,8.31,0,0,1,470,427.6Z" style="fill:#fff"></path><path d="M475.87,424.91a13.08,13.08,0,0,1-2.17-2.21,13.79,13.79,0,0,1-1.92-2.44,27.12,27.12,0,0,1,4.09,4.65Z" style="fill:#fff"></path><path d="M482.21,421.28c-.08.06-1.18-1.52-2.71-3.33s-2.9-3.15-2.83-3.23a15.72,15.72,0,0,1,3.1,3A15.52,15.52,0,0,1,482.21,421.28Z" style="fill:#fff"></path><path d="M488.05,418.39a14.61,14.61,0,0,1-1-1.52,37.86,37.86,0,0,0-2.56-3.55,39.18,39.18,0,0,0-3-3.21,10.34,10.34,0,0,1-1.29-1.29,8.65,8.65,0,0,1,1.46,1.1,25.71,25.71,0,0,1,3.07,3.18,25.25,25.25,0,0,1,2.5,3.64A7,7,0,0,1,488.05,418.39Z" style="fill:#fff"></path><path d="M433.89,431.87a11.81,11.81,0,0,1,.24,1.71,35.53,35.53,0,0,0,1.93,8.06,11.26,11.26,0,0,1,.56,1.63,6.91,6.91,0,0,1-.8-1.54,26.46,26.46,0,0,1-1.31-4,24.49,24.49,0,0,1-.63-4.14A6.34,6.34,0,0,1,433.89,431.87Z" style="fill:#fff"></path><path d="M439.63,432c.11,0,.14,2,.77,4.41s1.56,4.18,1.46,4.23a4,4,0,0,1-.69-1.13,15.56,15.56,0,0,1-1.11-3,15.09,15.09,0,0,1-.49-3.17A3.71,3.71,0,0,1,439.63,432Z" style="fill:#fff"></path><path d="M445.5,431.56c.11,0,.35,1.54.87,3.4s1.12,3.31,1,3.35a10.59,10.59,0,0,1-1.36-3.26A10.46,10.46,0,0,1,445.5,431.56Z" style="fill:#fff"></path><path d="M450.3,431.48a15.31,15.31,0,0,1,1.52,4.41,7.75,7.75,0,0,1-.93-2.15A7.89,7.89,0,0,1,450.3,431.48Z" style="fill:#fff"></path><path d="M454.92,429.82a6.64,6.64,0,0,1,1,1.9,6.92,6.92,0,0,1,.68,2,13.1,13.1,0,0,1-1.69-3.95Z" style="fill:#fff"></path><path d="M461.61,431.26a3.93,3.93,0,0,1-.09.8c-.08.52-.21,1.26-.39,2.17-.35,1.83-.89,4.34-1.52,7.11s-1.19,5.19-1.62,7.08c-.2.85-.36,1.57-.5,2.15a3.73,3.73,0,0,1-.22.77,3.18,3.18,0,0,1,.09-.8c.07-.52.21-1.26.38-2.17.35-1.83.89-4.34,1.52-7.11s1.19-5.19,1.63-7.08c.19-.85.36-1.57.49-2.14A2.8,2.8,0,0,1,461.61,431.26Z" style="fill:#fff"></path><path d="M460.74,432.26a5.64,5.64,0,0,1-.33.9c-.26.63-.58,1.44-1,2.41l-3.16,8c-1.23,3.11-2.38,5.92-3.26,7.92-.45,1-.82,1.82-1.09,2.37a5.29,5.29,0,0,1-.45.84,4.6,4.6,0,0,1,.33-.9c.25-.63.58-1.44,1-2.4l3.17-8c1.23-3.12,2.37-5.92,3.26-7.93.44-1,.81-1.81,1.09-2.36A3.78,3.78,0,0,1,460.74,432.26Z" style="fill:#fff"></path><path d="M462.57,451c-.06,0-.47-.49-1.34-1.08a6.85,6.85,0,0,0-1.65-.81,9.24,9.24,0,0,0-2.21-.4,12.17,12.17,0,0,0-4.07.59,16.26,16.26,0,0,1-1.64.55,5.79,5.79,0,0,1,1.56-.79,10.53,10.53,0,0,1,4.16-.7,8.24,8.24,0,0,1,2.31.44,6.22,6.22,0,0,1,1.69.91,5.39,5.39,0,0,1,.93.89C462.49,450.87,462.59,451,462.57,451Z" style="fill:#fff"></path><path d="M461.85,445a14.58,14.58,0,0,0-3.72-1.12,14.18,14.18,0,0,0-3.88.25,2.82,2.82,0,0,1,1.09-.43,8,8,0,0,1,5.54.63A2.93,2.93,0,0,1,461.85,445Z" style="fill:#fff"></path><path d="M461.84,439.73c-.06.09-.95-.59-2.25-1s-2.41-.26-2.42-.37a4.79,4.79,0,0,1,4.67,1.33Z" style="fill:#fff"></path><path d="M463.57,430.61c.07-.08,3.82,3.07,8.38,7s8.22,7.22,8.15,7.29-3.81-3.07-8.38-7S463.51,430.68,463.57,430.61Z" style="fill:#fff"></path><path d="M482.64,440a4.23,4.23,0,0,1-.73-.35l-2-1c-1.64-.87-3.92-2.07-6.46-3.32s-4.89-2.32-6.59-3.08l-2-.91a4.06,4.06,0,0,1-.72-.37,4.27,4.27,0,0,1,.78.24c.49.18,1.19.46,2.05.81,1.73.7,4.09,1.74,6.64,3s4.82,2.49,6.43,3.43c.81.46,1.46.85,1.9,1.13A3.44,3.44,0,0,1,482.64,440Z" style="fill:#fff"></path><path d="M481.8,435.71a17.76,17.76,0,0,0-3.58,3.82,18.26,18.26,0,0,0-2,4.84,4.5,4.5,0,0,1,.19-1.55,11.6,11.6,0,0,1,4-6.29A4.51,4.51,0,0,1,481.8,435.71Z" style="fill:#fff"></path><path d="M477.31,434.26a18.58,18.58,0,0,0-2.54,3,18.81,18.81,0,0,0-1.52,3.63,7.33,7.33,0,0,1,1.22-3.82A7.23,7.23,0,0,1,477.31,434.26Z" style="fill:#fff"></path><path d="M472,433.09a12.51,12.51,0,0,0-1.72,2,12.76,12.76,0,0,0-1,2.44,3.86,3.86,0,0,1,.67-2.62A3.74,3.74,0,0,1,472,433.09Z" style="fill:#fff"></path><path d="M469.14,432.06a13.36,13.36,0,0,0-1.63,1.16,13.88,13.88,0,0,0-1.21,1.6,3.31,3.31,0,0,1,2.84-2.76Z" style="fill:#fff"></path></g><path d="M463.05,428.62s.17.17.36.54a4.1,4.1,0,0,1,.25.69,1.64,1.64,0,0,1,0,1l0-.06a1.08,1.08,0,0,1-.52.7,1.27,1.27,0,0,1-.89.22,2.18,2.18,0,0,1-1.3-.9,2.46,2.46,0,0,1-.5-1.17c-.08-.76.27-1.15.29-1.11a2.86,2.86,0,0,0-.05,1.07,2.5,2.5,0,0,0,.52,1,2,2,0,0,0,1.09.75,1,1,0,0,0,1-.61v0l0,0a1.54,1.54,0,0,0,0-.8,4.27,4.27,0,0,0-.18-.67C463.1,428.86,463,428.64,463.05,428.62Z" style="fill:#263238"></path><path d="M463.17,431.22c-.1,0-.47-.65-1.18-1.27s-1.42-.93-1.39-1a3.15,3.15,0,0,1,2.57,2.3Z" style="fill:#263238"></path><path d="M467.31,434.32a10.25,10.25,0,0,1-2.11-1.66,10.1,10.1,0,0,1-1.87-1.93,10.25,10.25,0,0,1,2.11,1.66A10.1,10.1,0,0,1,467.31,434.32Z" style="fill:#263238"></path><path d="M461.66,431.3a23.78,23.78,0,0,1-1.1,2.82,22.86,22.86,0,0,1-1.15,2.8,14.14,14.14,0,0,1,2.25-5.62Z" style="fill:#263238"></path><polygon points="399.92 378.33 375.12 353.31 481.28 353.31 516.72 378.33 399.92 378.33" style="fill:#455a64"></polygon><path d="M548.84,378.86c0,.14-33.2.26-74.13.26s-74.14-.12-74.14-.26,33.19-.26,74.14-.26S548.84,378.71,548.84,378.86Z" style="fill:#263238"></path><polygon points="516.72 378.33 540.21 354.85 576.49 354.85 548.84 378.86 516.72 378.33" style="opacity:0.30000000000000004"></polygon><path d="M465.87,344.58c-.13.06-2.94-5.71-6.28-12.88s-5.94-13.05-5.81-13.11,3,5.71,6.29,12.89S466,344.52,465.87,344.58Z" style="fill:#fff"></path><path d="M483.93,341.25c-.14,0-2.73-10.92-5.79-24.46s-5.41-24.56-5.27-24.59,2.73,10.92,5.78,24.47S484.07,341.22,483.93,341.25Z" style="fill:#fff"></path><path d="M500.35,338.49c-.14,0,1.22-8.79,3-19.57s3.4-19.51,3.54-19.48-1.21,8.78-3,19.57S500.49,338.51,500.35,338.49Z" style="fill:#fff"></path><path d="M517.16,347.56c-.13-.07,3.77-7.13,8.7-15.77s9-15.59,9.16-15.51-3.77,7.13-8.7,15.77S517.28,347.63,517.16,347.56Z" style="fill:#fff"></path><path d="M541.75,343.46a154.19,154.19,0,0,1-15,9.55,77.9,77.9,0,0,1,7.36-5A76.71,76.71,0,0,1,541.75,343.46Z" style="fill:#fff"></path><path d="M453.13,349a45.46,45.46,0,0,1-5.58-3.93,46.17,46.17,0,0,1-5.26-4.34A86.85,86.85,0,0,1,453.13,349Z" style="fill:#fff"></path></g><g id="freepik--Floor--inject-7"><path d="M698.6,476.74c0,.14-144.89.26-323.58.26s-323.62-.12-323.62-.26,144.86-.26,323.62-.26S698.6,476.59,698.6,476.74Z" style="fill:#263238"></path></g></svg>